<?xml version="1.0" encoding="UTF-8" ?>
<!DOCTYPE svg PUBLIC "-//W3C//DTD SVG 1.1//EN" "http://www.w3.org/Graphics/SVG/1.1/DTD/svg11.dtd">
<svg width="546pt" height="256pt" viewBox="0 0 546 256" version="1.1" xmlns="http://www.w3.org/2000/svg">
<g id="#ffffffff">
</g>
<g id="#000000ff">
<path fill="#000000" opacity="1.00" d=" M 68.18 0.00 L 194.16 0.00 C 198.04 0.67 201.29 3.47 202.62 7.16 C 205.37 14.44 205.04 22.40 204.87 30.05 C 204.49 35.83 203.86 42.33 199.54 46.65 C 197.33 48.90 194.05 49.42 191.02 49.35 C 164.03 49.31 137.04 49.35 110.04 49.33 C 110.03 65.97 110.04 82.62 110.04 99.27 C 133.03 99.28 156.03 99.23 179.02 99.29 C 183.88 99.14 187.92 102.96 189.41 107.36 C 191.61 113.99 191.42 121.10 191.28 128.00 C 191.00 133.02 190.55 138.36 187.77 142.70 C 185.67 145.93 181.79 147.62 178.00 147.41 C 155.35 147.39 132.69 147.41 110.04 147.39 C 110.11 151.91 111.21 158.98 105.02 159.77 C 102.72 159.23 100.17 157.75 100.14 155.09 C 99.93 150.70 99.94 146.28 100.13 141.89 C 100.20 138.95 103.22 137.09 105.96 137.40 C 130.45 137.43 154.95 137.34 179.44 137.45 C 181.13 133.51 181.30 129.19 181.37 124.97 C 181.40 119.71 181.37 114.31 179.51 109.31 C 155.00 109.20 130.48 109.31 105.97 109.26 C 102.95 109.66 99.84 107.29 100.08 104.11 C 99.98 84.40 100.05 64.69 100.05 44.97 C 99.86 42.68 101.14 40.25 103.44 39.59 C 106.23 39.09 109.10 39.38 111.93 39.33 C 138.95 39.34 165.98 39.33 193.01 39.33 C 195.29 33.53 195.02 27.17 194.94 21.05 C 194.91 17.29 194.34 13.54 193.07 9.99 C 152.37 10.02 111.67 10.00 70.97 10.00 C 67.81 9.95 64.29 10.59 62.16 13.16 C 60.23 15.67 60.27 19.01 60.20 22.01 C 60.23 93.03 60.20 164.04 60.22 235.05 C 60.30 238.15 60.55 241.82 63.22 243.86 C 65.68 245.89 69.01 246.02 72.05 246.02 C 112.66 245.94 153.26 246.07 193.87 245.96 C 196.07 239.87 195.83 233.31 195.69 226.94 C 195.63 223.45 195.00 219.98 193.84 216.69 C 164.26 216.61 134.68 216.73 105.10 216.63 C 102.58 216.75 100.15 214.67 100.12 212.10 C 99.95 207.70 99.92 203.29 100.14 198.89 C 100.23 196.27 102.75 194.85 105.01 194.31 C 107.01 194.83 109.23 195.83 109.78 198.04 C 110.23 200.89 110.01 203.79 110.04 206.67 C 137.69 206.68 165.36 206.63 193.01 206.69 C 198.73 206.36 203.13 211.26 204.29 216.49 C 206.30 225.17 206.12 234.28 204.98 243.07 C 204.28 248.93 200.76 255.46 194.24 256.00 L 67.91 256.00 C 62.91 255.37 57.90 253.33 54.59 249.41 C 51.19 245.46 50.21 240.08 50.22 235.02 C 50.20 163.99 50.22 92.95 50.21 21.92 C 50.15 17.01 50.81 11.82 53.71 7.71 C 57.01 3.05 62.60 0.53 68.18 0.00 Z" />
<path fill="#000000" opacity="1.00" d=" M 267.40 0.00 L 271.08 0.00 C 287.10 1.15 301.30 14.16 303.42 30.15 C 304.30 39.24 303.62 48.41 303.85 57.54 C 311.89 49.35 319.87 41.09 327.94 32.92 C 335.66 25.12 347.15 21.34 357.99 23.02 C 370.65 24.77 381.89 33.97 386.12 46.02 C 390.62 58.11 387.72 72.51 378.91 81.93 C 369.50 91.75 359.90 101.40 350.43 111.17 C 356.86 121.83 363.30 132.50 369.74 143.16 C 383.34 129.61 396.91 116.02 410.47 102.43 C 413.60 99.14 417.21 95.55 422.06 95.39 C 428.55 94.80 434.78 100.33 434.88 106.86 C 435.22 124.52 428.97 142.17 417.75 155.80 C 409.93 164.78 401.06 172.78 392.78 181.33 C 394.66 184.69 398.80 188.85 395.11 192.50 C 391.03 193.83 388.96 189.89 387.38 186.93 C 385.55 188.60 383.52 190.06 381.37 191.29 C 383.61 196.36 384.85 202.66 381.61 207.60 C 378.41 212.84 370.90 214.53 365.73 211.28 C 362.93 209.81 361.41 206.95 360.09 204.22 C 359.34 205.12 358.57 206.02 357.79 206.90 C 360.65 211.86 359.95 218.72 355.29 222.35 C 352.52 224.79 348.67 224.81 345.20 224.99 C 349.41 231.55 352.67 239.23 359.54 243.52 C 370.04 250.73 385.33 249.29 394.34 240.30 C 403.72 231.58 405.53 216.20 398.56 205.48 C 396.81 203.30 396.65 200.41 398.66 198.36 C 400.31 198.10 402.44 197.84 403.57 199.40 C 410.70 209.20 412.37 222.73 407.60 233.91 C 402.62 246.19 390.20 254.96 376.97 255.59 C 365.34 256.32 353.49 250.88 346.64 241.42 C 342.88 236.13 339.88 230.37 336.37 224.93 C 331.57 224.71 326.62 223.29 323.15 219.80 C 317.09 214.04 315.79 204.35 319.51 196.96 C 314.32 188.28 309.08 179.64 303.85 170.99 C 303.82 187.32 303.85 203.66 303.83 219.99 C 303.96 229.19 300.41 238.38 294.02 245.01 C 287.96 251.45 279.43 255.27 270.65 256.00 L 267.40 256.00 C 253.56 255.66 240.65 246.36 235.66 233.51 C 233.17 227.67 232.91 221.24 233.05 214.98 C 233.09 161.63 233.00 108.27 233.09 54.92 C 232.83 52.59 235.00 51.28 236.87 50.59 C 240.33 51.44 240.98 54.92 240.59 57.99 C 240.52 111.99 240.56 165.99 240.57 220.00 C 240.31 232.53 249.33 244.54 261.53 247.59 C 271.84 250.40 283.51 246.47 290.13 238.10 C 294.03 233.30 296.23 227.18 296.31 221.00 C 296.48 198.14 296.13 175.27 296.48 152.42 C 297.78 150.91 299.97 149.45 301.92 150.79 C 304.53 152.33 303.33 155.90 304.86 158.16 C 311.41 168.99 317.95 179.83 324.50 190.67 C 328.34 186.52 332.14 182.33 335.94 178.14 C 332.59 173.51 332.26 166.66 336.42 162.41 C 340.34 157.86 347.31 157.61 352.25 160.65 C 356.28 156.68 360.26 152.65 364.26 148.66 C 358.19 138.47 352.01 128.34 345.89 118.19 C 344.52 115.85 342.85 113.64 341.99 111.05 C 341.72 109.11 343.34 107.78 344.48 106.48 C 353.91 96.89 363.31 87.26 372.69 77.62 C 379.25 70.99 382.17 61.02 380.04 51.92 C 377.87 41.70 369.43 33.20 359.25 30.88 C 351.68 29.08 343.36 30.60 336.99 35.09 C 333.91 37.25 331.39 40.09 328.77 42.76 C 320.53 51.26 312.18 59.66 303.99 68.20 C 303.76 70.43 304.11 73.49 301.54 74.50 C 299.23 75.62 296.84 73.74 296.29 71.49 C 296.34 59.02 296.42 46.54 296.27 34.06 C 295.93 21.29 285.62 9.75 272.99 7.90 C 261.85 5.85 250.01 11.65 244.47 21.46 C 240.99 26.96 240.46 33.57 240.46 39.91 C 240.57 42.06 238.43 42.98 236.80 43.71 C 231.64 42.63 233.15 36.71 233.21 32.93 C 234.24 15.42 249.81 0.28 267.40 0.00 M 420.38 103.50 C 417.62 105.33 415.62 108.07 413.28 110.38 C 394.74 128.92 376.21 147.48 357.64 166.00 C 363.50 171.59 368.93 177.61 374.76 183.23 C 376.40 184.91 379.28 184.53 380.74 182.82 C 389.78 173.83 398.78 164.81 407.78 155.78 C 420.41 142.97 427.80 125.05 427.41 107.03 C 427.37 103.66 423.10 101.69 420.38 103.50 M 343.36 166.40 C 340.49 167.52 339.91 171.73 342.24 173.69 C 350.03 181.60 357.97 189.37 365.75 197.28 C 367.96 199.26 366.64 203.12 369.38 204.75 C 371.75 206.51 375.43 204.92 376.03 202.10 C 376.48 197.77 374.55 193.47 371.46 190.51 C 363.79 182.84 356.14 175.14 348.44 167.52 C 347.19 166.13 345.07 165.51 343.36 166.40 M 327.13 199.13 C 322.42 204.99 325.51 215.12 332.93 216.93 C 337.90 217.72 342.98 217.22 348.00 217.30 C 350.74 217.59 352.82 214.44 351.82 211.98 C 350.52 210.14 347.80 208.63 348.78 205.96 C 350.64 202.90 353.53 200.62 355.83 197.88 C 350.99 193.04 346.16 188.21 341.31 183.38 C 336.62 188.66 331.69 193.74 327.13 199.13 Z" />
<path fill="#000000" opacity="1.00" d=" M 266.89 123.43 C 267.29 120.29 265.74 115.81 269.08 113.88 C 271.73 112.42 274.96 115.11 274.46 117.98 C 274.35 120.97 275.47 125.40 271.89 126.79 C 269.50 127.65 267.29 125.72 266.89 123.43 Z" />
<path fill="#000000" opacity="1.00" d=" M 319.46 117.10 C 319.39 114.13 323.47 112.24 325.60 114.45 C 327.87 116.80 326.67 120.51 326.88 123.44 C 326.55 124.42 326.23 125.39 325.90 126.37 C 325.18 125.87 324.46 125.37 323.75 124.88 C 323.60 125.44 323.32 126.55 323.18 127.10 C 322.69 126.95 321.71 126.64 321.22 126.49 C 318.28 124.33 319.65 120.18 319.46 117.10 Z" />
<path fill="#000000" opacity="1.00" d=" M 287.42 119.55 C 290.89 118.37 292.62 122.84 295.89 122.98 C 298.71 123.60 301.01 121.77 303.04 120.13 C 304.90 118.48 308.21 119.60 308.74 122.01 C 309.57 124.78 306.98 126.75 305.01 128.12 C 299.08 132.24 290.21 130.96 285.72 125.31 C 284.22 123.46 285.11 120.27 287.42 119.55 Z" />
<path fill="#000000" opacity="1.00" d=" M 100.03 177.10 C 99.87 174.21 102.47 172.35 105.02 171.79 C 107.54 172.35 110.13 174.12 110.04 177.00 C 110.16 179.88 107.58 181.78 105.01 182.29 C 102.51 181.73 99.94 179.94 100.03 177.10 Z" />
</g>
<g id="#4c5699ff">
<path fill="#4c5699" opacity="1.00" d=" M 244.47 21.46 C 250.01 11.65 261.85 5.85 272.99 7.90 C 285.62 9.75 295.93 21.29 296.27 34.06 C 296.42 46.54 296.34 59.02 296.29 71.49 C 287.45 81.44 282.99 94.79 282.34 107.95 C 281.57 123.90 287.61 139.40 296.48 152.42 C 296.13 175.27 296.48 198.14 296.31 221.00 C 296.23 227.18 294.03 233.30 290.13 238.10 C 283.51 246.47 271.84 250.40 261.53 247.59 C 249.33 244.54 240.31 232.53 240.57 220.00 C 240.56 165.99 240.52 111.99 240.59 57.99 C 240.98 54.92 240.33 51.44 236.87 50.59 C 236.84 48.30 236.79 46.01 236.80 43.71 C 238.43 42.98 240.57 42.06 240.46 39.91 C 240.46 33.57 240.99 26.96 244.47 21.46 M 266.89 123.43 C 260.18 121.67 251.72 123.83 248.45 130.41 C 246.16 134.73 248.19 140.16 252.00 142.88 C 258.94 148.19 270.64 147.09 275.43 139.41 C 278.13 135.28 276.61 129.74 273.05 126.64 L 271.89 126.79 C 275.47 125.40 274.35 120.97 274.46 117.98 C 274.96 115.11 271.73 112.42 269.08 113.88 C 265.74 115.81 267.29 120.29 266.89 123.43 Z" />
</g>
<g id="#ffc145ff">
<path fill="#ffc145" opacity="1.00" d=" M 62.16 13.16 C 64.29 10.59 67.81 9.95 70.97 10.00 C 111.67 10.00 152.37 10.02 193.07 9.99 C 194.34 13.54 194.91 17.29 194.94 21.05 C 195.02 27.17 195.29 33.53 193.01 39.33 C 165.98 39.33 138.95 39.34 111.93 39.33 C 109.10 39.38 106.23 39.09 103.44 39.59 C 101.14 40.25 99.86 42.68 100.05 44.97 C 100.05 64.69 99.98 84.40 100.08 104.11 C 99.84 107.29 102.95 109.66 105.97 109.26 C 130.48 109.31 155.00 109.20 179.51 109.31 C 181.37 114.31 181.40 119.71 181.37 124.97 C 181.30 129.19 181.13 133.51 179.44 137.45 C 154.95 137.34 130.45 137.43 105.96 137.40 C 103.22 137.09 100.20 138.95 100.13 141.89 C 99.94 146.28 99.93 150.70 100.14 155.09 C 100.17 157.75 102.72 159.23 105.02 159.77 C 105.04 163.77 105.04 167.78 105.02 171.79 C 102.47 172.35 99.87 174.21 100.03 177.10 C 99.94 179.94 102.51 181.73 105.01 182.29 C 105.05 186.30 105.05 190.31 105.01 194.31 C 102.75 194.85 100.23 196.27 100.14 198.89 C 99.92 203.29 99.95 207.70 100.12 212.10 C 100.15 214.67 102.58 216.75 105.10 216.63 C 134.68 216.73 164.26 216.61 193.84 216.69 C 195.00 219.98 195.63 223.45 195.69 226.94 C 195.83 233.31 196.07 239.87 193.87 245.96 C 153.26 246.07 112.66 245.94 72.05 246.02 C 69.01 246.02 65.68 245.89 63.22 243.86 C 60.55 241.82 60.30 238.15 60.22 235.05 C 60.20 164.04 60.23 93.03 60.20 22.01 C 60.27 19.01 60.23 15.67 62.16 13.16 Z" />
<path fill="#ffc145" opacity="1.00" d=" M 343.36 166.40 C 345.07 165.51 347.19 166.13 348.44 167.52 C 356.14 175.14 363.79 182.84 371.46 190.51 C 374.55 193.47 376.48 197.77 376.03 202.10 C 375.43 204.92 371.75 206.51 369.38 204.75 C 366.64 203.12 367.96 199.26 365.75 197.28 C 357.97 189.37 350.03 181.60 342.24 173.69 C 339.91 171.73 340.49 167.52 343.36 166.40 Z" />
<path fill="#ffc145" opacity="1.00" d=" M 327.13 199.13 C 331.69 193.74 336.62 188.66 341.31 183.38 C 346.16 188.21 350.99 193.04 355.83 197.88 C 353.53 200.62 350.64 202.90 348.78 205.96 C 347.80 208.63 350.52 210.14 351.82 211.98 C 352.82 214.44 350.74 217.59 348.00 217.30 C 342.98 217.22 337.90 217.72 332.93 216.93 C 325.51 215.12 322.42 204.99 327.13 199.13 Z" />
</g>
<g id="#676fb2ff">
<path fill="#676fb2" opacity="1.00" d=" M 336.99 35.09 C 343.36 30.60 351.68 29.08 359.25 30.88 C 369.43 33.20 377.87 41.70 380.04 51.92 C 382.17 61.02 379.25 70.99 372.69 77.62 C 363.31 87.26 353.91 96.89 344.48 106.48 C 343.34 107.78 341.72 109.11 341.99 111.05 C 342.85 113.64 344.52 115.85 345.89 118.19 C 352.01 128.34 358.19 138.47 364.26 148.66 C 360.26 152.65 356.28 156.68 352.25 160.65 C 347.31 157.61 340.34 157.86 336.42 162.41 C 332.26 166.66 332.59 173.51 335.94 178.14 C 332.14 182.33 328.34 186.52 324.50 190.67 C 317.95 179.83 311.41 168.99 304.86 158.16 C 303.33 155.90 304.53 152.33 301.92 150.79 C 299.97 149.45 297.78 150.91 296.48 152.42 C 287.61 139.40 281.57 123.90 282.34 107.95 C 282.99 94.79 287.45 81.44 296.29 71.49 C 296.84 73.74 299.23 75.62 301.54 74.50 C 304.11 73.49 303.76 70.43 303.99 68.20 C 312.18 59.66 320.53 51.26 328.77 42.76 C 331.39 40.09 333.91 37.25 336.99 35.09 M 319.46 117.10 C 319.65 120.18 318.28 124.33 321.22 126.49 C 317.66 129.03 315.93 134.12 317.83 138.18 C 320.32 143.88 327.06 146.58 332.99 146.11 C 339.75 145.92 347.34 140.47 346.27 133.04 C 344.60 124.62 334.38 121.32 326.88 123.44 C 326.67 120.51 327.87 116.80 325.60 114.45 C 323.47 112.24 319.39 114.13 319.46 117.10 M 287.42 119.55 C 285.11 120.27 284.22 123.46 285.72 125.31 C 290.21 130.96 299.08 132.24 305.01 128.12 C 306.98 126.75 309.57 124.78 308.74 122.01 C 308.21 119.60 304.90 118.48 303.04 120.13 C 301.01 121.77 298.71 123.60 295.89 122.98 C 292.62 122.84 290.89 118.37 287.42 119.55 Z" />
<path fill="#676fb2" opacity="1.00" d=" M 381.37 191.29 C 383.52 190.06 385.55 188.60 387.38 186.93 C 388.96 189.89 391.03 193.83 395.11 192.50 C 396.31 194.44 397.49 196.39 398.66 198.36 C 396.65 200.41 396.81 203.30 398.56 205.48 C 405.53 216.20 403.72 231.58 394.34 240.30 C 385.33 249.29 370.04 250.73 359.54 243.52 C 352.67 239.23 349.41 231.55 345.20 224.99 C 348.67 224.81 352.52 224.79 355.29 222.35 C 359.95 218.72 360.65 211.86 357.79 206.90 C 358.57 206.02 359.34 205.12 360.09 204.22 C 361.41 206.95 362.93 209.81 365.73 211.28 C 370.90 214.53 378.41 212.84 381.61 207.60 C 384.85 202.66 383.61 196.36 381.37 191.29 Z" />
</g>
<g id="#bdbff3ff">
<path fill="#bdbff3" opacity="1.00" d=" M 420.38 103.50 C 423.10 101.69 427.37 103.66 427.41 107.03 C 427.80 125.05 420.41 142.97 407.78 155.78 C 398.78 164.81 389.78 173.83 380.74 182.82 C 379.28 184.53 376.40 184.91 374.76 183.23 C 368.93 177.61 363.50 171.59 357.64 166.00 C 376.21 147.48 394.74 128.92 413.28 110.38 C 415.62 108.07 417.62 105.33 420.38 103.50 Z" />
</g>
<g id="#ff8e9eff">
<path fill="#ff8e9e" opacity="1.00" d=" M 248.45 130.41 C 251.72 123.83 260.18 121.67 266.89 123.43 C 267.29 125.72 269.50 127.65 271.89 126.79 L 273.05 126.64 C 276.61 129.74 278.13 135.28 275.43 139.41 C 270.64 147.09 258.94 148.19 252.00 142.88 C 248.19 140.16 246.16 134.73 248.45 130.41 Z" />
<path fill="#ff8e9e" opacity="1.00" d=" M 326.88 123.44 C 334.38 121.32 344.60 124.62 346.27 133.04 C 347.34 140.47 339.75 145.92 332.99 146.11 C 327.06 146.58 320.32 143.88 317.83 138.18 C 315.93 134.12 317.66 129.03 321.22 126.49 C 321.71 126.64 322.69 126.95 323.18 127.10 C 323.32 126.55 323.60 125.44 323.75 124.88 C 324.46 125.37 325.18 125.87 325.90 126.37 C 326.23 125.39 326.55 124.42 326.88 123.44 Z" />
</g>
</svg>
