<svg xmlns="http://www.w3.org/2000/svg" xmlns:xlink="http://www.w3.org/1999/xlink" width="500" zoomAndPan="magnify" viewBox="0 0 375 374.999991" height="500" preserveAspectRatio="xMidYMid meet" version="1.0"><defs><g/><clipPath id="ece99a1878"><path d="M 17.636719 17.636719 L 369.386719 17.636719 L 369.386719 369.386719 L 17.636719 369.386719 Z M 17.636719 17.636719 " clip-rule="nonzero"/></clipPath><clipPath id="bef9cdaa03"><path d="M 7.886719 9.386719 L 359.636719 9.386719 L 359.636719 361.136719 L 7.886719 361.136719 Z M 7.886719 9.386719 " clip-rule="nonzero"/></clipPath></defs><g clip-path="url(#ece99a1878)"><path fill="#ff914d" d="M 369.363281 193.5 C 369.363281 196.375 369.292969 199.253906 369.148438 202.128906 C 369.007812 205.003906 368.796875 207.871094 368.515625 210.738281 C 368.234375 213.601562 367.878906 216.457031 367.457031 219.304688 C 367.035156 222.148438 366.542969 224.984375 365.984375 227.808594 C 365.421875 230.628906 364.789062 233.4375 364.089844 236.230469 C 363.390625 239.023438 362.625 241.796875 361.789062 244.550781 C 360.953125 247.304688 360.050781 250.035156 359.082031 252.746094 C 358.113281 255.457031 357.078125 258.140625 355.976562 260.796875 C 354.875 263.457031 353.707031 266.089844 352.476562 268.691406 C 351.246094 271.292969 349.953125 273.863281 348.597656 276.398438 C 347.238281 278.9375 345.820312 281.441406 344.339844 283.910156 C 342.863281 286.378906 341.324219 288.808594 339.722656 291.203125 C 338.125 293.597656 336.46875 295.949219 334.753906 298.261719 C 333.039062 300.570312 331.269531 302.839844 329.441406 305.066406 C 327.617188 307.289062 325.738281 309.46875 323.804688 311.601562 C 321.871094 313.734375 319.886719 315.816406 317.851562 317.851562 C 315.816406 319.886719 313.734375 321.871094 311.601562 323.804688 C 309.46875 325.738281 307.289062 327.617188 305.066406 329.441406 C 302.839844 331.269531 300.570312 333.039062 298.261719 334.753906 C 295.949219 336.46875 293.597656 338.125 291.203125 339.722656 C 288.808594 341.324219 286.378906 342.863281 283.910156 344.339844 C 281.441406 345.820312 278.9375 347.238281 276.398438 348.597656 C 273.863281 349.953125 271.292969 351.246094 268.691406 352.476562 C 266.089844 353.707031 263.457031 354.875 260.796875 355.976562 C 258.140625 357.078125 255.457031 358.113281 252.746094 359.082031 C 250.035156 360.050781 247.304688 360.953125 244.550781 361.789062 C 241.796875 362.625 239.023438 363.390625 236.230469 364.089844 C 233.4375 364.789062 230.628906 365.421875 227.808594 365.984375 C 224.984375 366.542969 222.148438 367.035156 219.304688 367.457031 C 216.457031 367.878906 213.601562 368.234375 210.738281 368.515625 C 207.871094 368.796875 205.003906 369.007812 202.128906 369.148438 C 199.253906 369.292969 196.375 369.363281 193.5 369.363281 C 190.621094 369.363281 187.746094 369.292969 184.871094 369.148438 C 181.996094 369.007812 179.125 368.796875 176.261719 368.515625 C 173.398438 368.234375 170.542969 367.878906 167.695312 367.457031 C 164.847656 367.035156 162.011719 366.542969 159.191406 365.984375 C 156.367188 365.421875 153.558594 364.789062 150.765625 364.089844 C 147.976562 363.390625 145.203125 362.625 142.449219 361.789062 C 139.695312 360.953125 136.960938 360.050781 134.253906 359.082031 C 131.542969 358.113281 128.859375 357.078125 126.199219 355.976562 C 123.539062 354.875 120.910156 353.707031 118.308594 352.476562 C 115.707031 351.246094 113.136719 349.953125 110.597656 348.597656 C 108.058594 347.238281 105.554688 345.820312 103.085938 344.339844 C 100.617188 342.863281 98.1875 341.324219 95.792969 339.722656 C 93.402344 338.125 91.046875 336.46875 88.738281 334.753906 C 86.425781 333.039062 84.15625 331.269531 81.933594 329.441406 C 79.707031 327.617188 77.527344 325.738281 75.394531 323.804688 C 73.261719 321.871094 71.179688 319.886719 69.144531 317.851562 C 67.109375 315.816406 65.125 313.734375 63.191406 311.601562 C 61.261719 309.46875 59.378906 307.289062 57.554688 305.066406 C 55.730469 302.839844 53.957031 300.570312 52.242188 298.261719 C 50.53125 295.949219 48.871094 293.597656 47.273438 291.203125 C 45.675781 288.808594 44.136719 286.378906 42.65625 283.910156 C 41.175781 281.441406 39.757812 278.9375 38.402344 276.398438 C 37.042969 273.863281 35.75 271.292969 34.519531 268.691406 C 33.289062 266.089844 32.125 263.457031 31.023438 260.796875 C 29.921875 258.140625 28.886719 255.457031 27.914062 252.746094 C 26.945312 250.035156 26.042969 247.304688 25.207031 244.550781 C 24.371094 241.792969 23.605469 239.023438 22.90625 236.230469 C 22.207031 233.4375 21.574219 230.628906 21.015625 227.808594 C 20.453125 224.984375 19.960938 222.148438 19.539062 219.304688 C 19.117188 216.457031 18.765625 213.601562 18.480469 210.738281 C 18.199219 207.871094 17.988281 205.003906 17.847656 202.128906 C 17.707031 199.253906 17.636719 196.375 17.636719 193.5 C 17.636719 190.621094 17.707031 187.746094 17.847656 184.871094 C 17.988281 181.996094 18.199219 179.125 18.480469 176.261719 C 18.765625 173.398438 19.117188 170.542969 19.539062 167.695312 C 19.960938 164.847656 20.453125 162.011719 21.015625 159.191406 C 21.574219 156.367188 22.207031 153.558594 22.90625 150.765625 C 23.605469 147.976562 24.371094 145.203125 25.207031 142.449219 C 26.042969 139.695312 26.945312 136.960938 27.914062 134.253906 C 28.886719 131.542969 29.921875 128.859375 31.023438 126.199219 C 32.125 123.539062 33.289062 120.910156 34.519531 118.308594 C 35.75 115.707031 37.042969 113.136719 38.402344 110.597656 C 39.757812 108.058594 41.175781 105.554688 42.65625 103.085938 C 44.136719 100.617188 45.675781 98.1875 47.273438 95.792969 C 48.871094 93.402344 50.53125 91.050781 52.242188 88.738281 C 53.957031 86.425781 55.730469 84.15625 57.554688 81.933594 C 59.378906 79.707031 61.261719 77.527344 63.191406 75.394531 C 65.125 73.261719 67.109375 71.179688 69.144531 69.144531 C 71.179688 67.109375 73.261719 65.125 75.394531 63.191406 C 77.527344 61.261719 79.707031 59.378906 81.933594 57.554688 C 84.15625 55.730469 86.425781 53.957031 88.738281 52.242188 C 91.046875 50.53125 93.402344 48.871094 95.792969 47.273438 C 98.1875 45.675781 100.617188 44.136719 103.085938 42.65625 C 105.554688 41.175781 108.058594 39.757812 110.597656 38.402344 C 113.136719 37.042969 115.707031 35.75 118.308594 34.519531 C 120.910156 33.289062 123.539062 32.125 126.199219 31.023438 C 128.859375 29.921875 131.542969 28.886719 134.253906 27.914062 C 136.960938 26.945312 139.695312 26.042969 142.449219 25.207031 C 145.203125 24.371094 147.976562 23.605469 150.765625 22.90625 C 153.558594 22.207031 156.367188 21.574219 159.191406 21.015625 C 162.011719 20.453125 164.847656 19.960938 167.695312 19.539062 C 170.542969 19.117188 173.398438 18.765625 176.261719 18.480469 C 179.125 18.199219 181.996094 17.988281 184.871094 17.847656 C 187.746094 17.707031 190.621094 17.636719 193.5 17.636719 C 196.375 17.636719 199.253906 17.707031 202.128906 17.847656 C 205.003906 17.988281 207.871094 18.199219 210.738281 18.480469 C 213.601562 18.765625 216.457031 19.117188 219.304688 19.539062 C 222.148438 19.960938 224.984375 20.453125 227.808594 21.015625 C 230.628906 21.574219 233.4375 22.207031 236.230469 22.90625 C 239.023438 23.605469 241.796875 24.371094 244.550781 25.207031 C 247.304688 26.042969 250.035156 26.945312 252.746094 27.914062 C 255.457031 28.886719 258.140625 29.921875 260.796875 31.023438 C 263.457031 32.125 266.089844 33.289062 268.691406 34.519531 C 271.292969 35.75 273.863281 37.042969 276.398438 38.402344 C 278.9375 39.757812 281.441406 41.175781 283.910156 42.65625 C 286.378906 44.136719 288.808594 45.675781 291.203125 47.273438 C 293.597656 48.871094 295.949219 50.53125 298.261719 52.242188 C 300.570312 53.957031 302.839844 55.730469 305.066406 57.554688 C 307.289062 59.378906 309.46875 61.261719 311.601562 63.191406 C 313.734375 65.125 315.816406 67.109375 317.851562 69.144531 C 319.886719 71.179688 321.871094 73.261719 323.804688 75.394531 C 325.738281 77.527344 327.617188 79.707031 329.441406 81.933594 C 331.269531 84.15625 333.039062 86.425781 334.753906 88.738281 C 336.46875 91.050781 338.125 93.402344 339.722656 95.792969 C 341.324219 98.1875 342.863281 100.617188 344.339844 103.085938 C 345.820312 105.554688 347.238281 108.058594 348.597656 110.597656 C 349.953125 113.136719 351.246094 115.707031 352.476562 118.308594 C 353.707031 120.910156 354.875 123.539062 355.976562 126.199219 C 357.078125 128.859375 358.113281 131.542969 359.082031 134.253906 C 360.050781 136.960938 360.953125 139.695312 361.789062 142.449219 C 362.625 145.203125 363.390625 147.976562 364.089844 150.765625 C 364.789062 153.558594 365.421875 156.367188 365.984375 159.191406 C 366.542969 162.011719 367.035156 164.847656 367.457031 167.695312 C 367.878906 170.542969 368.234375 173.398438 368.515625 176.261719 C 368.796875 179.125 369.007812 181.996094 369.148438 184.871094 C 369.292969 187.746094 369.363281 190.621094 369.363281 193.5 Z M 369.363281 193.5 " fill-opacity="1" fill-rule="nonzero"/></g><g clip-path="url(#bef9cdaa03)"><path fill="#ffde59" d="M 359.613281 185.25 C 359.613281 188.125 359.542969 191.003906 359.398438 193.878906 C 359.257812 196.753906 359.046875 199.621094 358.765625 202.488281 C 358.484375 205.351562 358.128906 208.207031 357.707031 211.054688 C 357.285156 213.898438 356.792969 216.734375 356.234375 219.558594 C 355.671875 222.378906 355.039062 225.1875 354.339844 227.980469 C 353.640625 230.773438 352.875 233.546875 352.039062 236.300781 C 351.203125 239.054688 350.300781 241.785156 349.332031 244.496094 C 348.363281 247.207031 347.328125 249.890625 346.226562 252.546875 C 345.125 255.207031 343.957031 257.839844 342.726562 260.441406 C 341.496094 263.042969 340.203125 265.613281 338.847656 268.148438 C 337.488281 270.6875 336.070312 273.191406 334.589844 275.660156 C 333.113281 278.128906 331.574219 280.558594 329.972656 282.953125 C 328.375 285.347656 326.71875 287.699219 325.003906 290.011719 C 323.289062 292.320312 321.519531 294.589844 319.691406 296.816406 C 317.867188 299.039062 315.988281 301.21875 314.054688 303.351562 C 312.121094 305.484375 310.136719 307.566406 308.101562 309.601562 C 306.066406 311.636719 303.984375 313.621094 301.851562 315.554688 C 299.71875 317.488281 297.539062 319.367188 295.316406 321.191406 C 293.089844 323.019531 290.820312 324.789062 288.511719 326.503906 C 286.199219 328.21875 283.847656 329.875 281.453125 331.472656 C 279.058594 333.074219 276.628906 334.613281 274.160156 336.089844 C 271.691406 337.570312 269.1875 338.988281 266.648438 340.347656 C 264.113281 341.703125 261.542969 342.996094 258.941406 344.226562 C 256.339844 345.457031 253.707031 346.625 251.046875 347.726562 C 248.390625 348.828125 245.707031 349.863281 242.996094 350.832031 C 240.285156 351.800781 237.554688 352.703125 234.800781 353.539062 C 232.046875 354.375 229.273438 355.140625 226.480469 355.839844 C 223.6875 356.539062 220.878906 357.171875 218.058594 357.734375 C 215.234375 358.292969 212.398438 358.785156 209.554688 359.207031 C 206.707031 359.628906 203.851562 359.984375 200.988281 360.265625 C 198.121094 360.546875 195.253906 360.757812 192.378906 360.898438 C 189.503906 361.042969 186.625 361.113281 183.75 361.113281 C 180.871094 361.113281 177.996094 361.042969 175.121094 360.898438 C 172.246094 360.757812 169.375 360.546875 166.511719 360.265625 C 163.648438 359.984375 160.792969 359.628906 157.945312 359.207031 C 155.097656 358.785156 152.261719 358.292969 149.441406 357.734375 C 146.617188 357.171875 143.808594 356.539062 141.015625 355.839844 C 138.226562 355.140625 135.453125 354.375 132.699219 353.539062 C 129.945312 352.703125 127.210938 351.800781 124.503906 350.832031 C 121.792969 349.863281 119.109375 348.828125 116.449219 347.726562 C 113.789062 346.625 111.160156 345.457031 108.558594 344.226562 C 105.957031 342.996094 103.386719 341.703125 100.847656 340.347656 C 98.308594 338.988281 95.804688 337.570312 93.335938 336.089844 C 90.867188 334.613281 88.4375 333.074219 86.042969 331.472656 C 83.652344 329.875 81.296875 328.21875 78.988281 326.503906 C 76.675781 324.789062 74.40625 323.019531 72.183594 321.191406 C 69.957031 319.367188 67.777344 317.488281 65.644531 315.554688 C 63.511719 313.621094 61.429688 311.636719 59.394531 309.601562 C 57.359375 307.566406 55.375 305.484375 53.441406 303.351562 C 51.511719 301.21875 49.628906 299.039062 47.804688 296.816406 C 45.980469 294.589844 44.207031 292.320312 42.492188 290.011719 C 40.78125 287.699219 39.121094 285.347656 37.523438 282.953125 C 35.925781 280.558594 34.386719 278.128906 32.90625 275.660156 C 31.425781 273.191406 30.007812 270.6875 28.652344 268.148438 C 27.292969 265.613281 26 263.042969 24.769531 260.441406 C 23.539062 257.839844 22.375 255.207031 21.273438 252.546875 C 20.171875 249.890625 19.136719 247.207031 18.164062 244.496094 C 17.195312 241.785156 16.292969 239.054688 15.457031 236.300781 C 14.621094 233.542969 13.855469 230.773438 13.15625 227.980469 C 12.457031 225.1875 11.824219 222.378906 11.265625 219.558594 C 10.703125 216.734375 10.210938 213.898438 9.789062 211.054688 C 9.367188 208.207031 9.015625 205.351562 8.730469 202.488281 C 8.449219 199.621094 8.238281 196.753906 8.097656 193.878906 C 7.957031 191.003906 7.886719 188.125 7.886719 185.25 C 7.886719 182.371094 7.957031 179.496094 8.097656 176.621094 C 8.238281 173.746094 8.449219 170.875 8.730469 168.011719 C 9.015625 165.148438 9.367188 162.292969 9.789062 159.445312 C 10.210938 156.597656 10.703125 153.761719 11.265625 150.941406 C 11.824219 148.117188 12.457031 145.308594 13.15625 142.515625 C 13.855469 139.726562 14.621094 136.953125 15.457031 134.199219 C 16.292969 131.445312 17.195312 128.710938 18.164062 126.003906 C 19.136719 123.292969 20.171875 120.609375 21.273438 117.949219 C 22.375 115.289062 23.539062 112.660156 24.769531 110.058594 C 26 107.457031 27.292969 104.886719 28.652344 102.347656 C 30.007812 99.808594 31.425781 97.304688 32.90625 94.835938 C 34.386719 92.367188 35.925781 89.9375 37.523438 87.542969 C 39.121094 85.152344 40.78125 82.800781 42.492188 80.488281 C 44.207031 78.175781 45.980469 75.90625 47.804688 73.683594 C 49.628906 71.457031 51.511719 69.277344 53.441406 67.144531 C 55.375 65.011719 57.359375 62.929688 59.394531 60.894531 C 61.429688 58.859375 63.511719 56.875 65.644531 54.941406 C 67.777344 53.011719 69.957031 51.128906 72.183594 49.304688 C 74.40625 47.480469 76.675781 45.707031 78.988281 43.992188 C 81.296875 42.28125 83.652344 40.621094 86.042969 39.023438 C 88.4375 37.425781 90.867188 35.886719 93.335938 34.40625 C 95.804688 32.925781 98.308594 31.507812 100.847656 30.152344 C 103.386719 28.792969 105.957031 27.5 108.558594 26.269531 C 111.160156 25.039062 113.789062 23.875 116.449219 22.773438 C 119.109375 21.671875 121.792969 20.636719 124.503906 19.664062 C 127.210938 18.695312 129.945312 17.792969 132.699219 16.957031 C 135.453125 16.121094 138.226562 15.355469 141.015625 14.65625 C 143.808594 13.957031 146.617188 13.324219 149.441406 12.765625 C 152.261719 12.203125 155.097656 11.710938 157.945312 11.289062 C 160.792969 10.867188 163.648438 10.515625 166.511719 10.230469 C 169.375 9.949219 172.246094 9.738281 175.121094 9.597656 C 177.996094 9.457031 180.871094 9.386719 183.75 9.386719 C 186.625 9.386719 189.503906 9.457031 192.378906 9.597656 C 195.253906 9.738281 198.121094 9.949219 200.988281 10.230469 C 203.851562 10.515625 206.707031 10.867188 209.554688 11.289062 C 212.398438 11.710938 215.234375 12.203125 218.058594 12.765625 C 220.878906 13.324219 223.6875 13.957031 226.480469 14.65625 C 229.273438 15.355469 232.046875 16.121094 234.800781 16.957031 C 237.554688 17.792969 240.285156 18.695312 242.996094 19.664062 C 245.707031 20.636719 248.390625 21.671875 251.046875 22.773438 C 253.707031 23.875 256.339844 25.039062 258.941406 26.269531 C 261.542969 27.5 264.113281 28.792969 266.648438 30.152344 C 269.1875 31.507812 271.691406 32.925781 274.160156 34.40625 C 276.628906 35.886719 279.058594 37.425781 281.453125 39.023438 C 283.847656 40.621094 286.199219 42.28125 288.511719 43.992188 C 290.820312 45.707031 293.089844 47.480469 295.316406 49.304688 C 297.539062 51.128906 299.71875 53.011719 301.851562 54.941406 C 303.984375 56.875 306.066406 58.859375 308.101562 60.894531 C 310.136719 62.929688 312.121094 65.011719 314.054688 67.144531 C 315.988281 69.277344 317.867188 71.457031 319.691406 73.683594 C 321.519531 75.90625 323.289062 78.175781 325.003906 80.488281 C 326.71875 82.800781 328.375 85.152344 329.972656 87.542969 C 331.574219 89.9375 333.113281 92.367188 334.589844 94.835938 C 336.070312 97.304688 337.488281 99.808594 338.847656 102.347656 C 340.203125 104.886719 341.496094 107.457031 342.726562 110.058594 C 343.957031 112.660156 345.125 115.289062 346.226562 117.949219 C 347.328125 120.609375 348.363281 123.292969 349.332031 126.003906 C 350.300781 128.710938 351.203125 131.445312 352.039062 134.199219 C 352.875 136.953125 353.640625 139.726562 354.339844 142.515625 C 355.039062 145.308594 355.671875 148.117188 356.234375 150.941406 C 356.792969 153.761719 357.285156 156.597656 357.707031 159.445312 C 358.128906 162.292969 358.484375 165.148438 358.765625 168.011719 C 359.046875 170.875 359.257812 173.746094 359.398438 176.621094 C 359.542969 179.496094 359.613281 182.371094 359.613281 185.25 Z M 359.613281 185.25 " fill-opacity="1" fill-rule="nonzero"/></g><g fill="#ff0000" fill-opacity="1"><g transform="translate(33.471587, 265.562518)"><g><path d="M 131.214844 -33.339844 L 55.25 -33.339844 L 55.25 -64.773438 L 119.070312 -64.773438 C 124.546875 -64.773438 125.976562 -67.394531 125.976562 -71.679688 L 125.976562 -90.257812 C 125.976562 -94.542969 124.546875 -97.164062 119.070312 -97.164062 L 55.25 -97.164062 L 55.25 -123.121094 L 127.167969 -123.121094 C 132.644531 -123.121094 134.074219 -125.738281 134.074219 -130.027344 L 134.074219 -149.792969 C 134.074219 -154.078125 132.644531 -156.699219 127.167969 -156.699219 L 24.527344 -156.699219 C 19.050781 -156.699219 17.621094 -154.078125 17.621094 -149.792969 L 17.621094 -6.90625 C 17.621094 -2.621094 19.050781 0 24.527344 0 L 131.214844 0 C 136.695312 0 138.121094 -2.621094 138.121094 -6.90625 L 138.121094 -26.433594 C 138.121094 -30.71875 136.695312 -33.339844 131.214844 -33.339844 Z M 131.214844 -33.339844 "/></g></g></g><g fill="#ff0000" fill-opacity="1"><g transform="translate(182.78671, 265.562518)"><g><path d="M 148.125 -156.699219 L 115.976562 -156.699219 C 110.5 -156.699219 108.832031 -156.222656 104.066406 -150.980469 L 54.773438 -96.6875 L 54.773438 -149.792969 C 54.773438 -155.269531 52.152344 -156.699219 48.105469 -156.699219 L 24.527344 -156.699219 C 20.003906 -156.699219 17.621094 -155.269531 17.621094 -149.792969 L 17.621094 -6.90625 C 17.621094 -1.429688 20.003906 0 24.527344 0 L 48.105469 0 C 52.152344 0 54.773438 -1.429688 54.773438 -6.90625 L 54.773438 -49.296875 L 69.539062 -64.773438 C 82.398438 -43.34375 103.59375 -7.621094 103.59375 -7.621094 C 106.6875 -2.621094 109.785156 0 115.5 0 L 144.550781 0 C 149.078125 0 150.03125 -4.523438 148.125 -7.621094 L 96.925781 -91.921875 L 150.507812 -150.03125 C 152.648438 -152.171875 152.648438 -156.699219 148.125 -156.699219 Z M 148.125 -156.699219 "/></g></g></g><g fill="#00ffff" fill-opacity="1"><g transform="translate(21.380835, 259.133751)"><g><path d="M 131.214844 -33.339844 L 55.25 -33.339844 L 55.25 -64.773438 L 119.070312 -64.773438 C 124.546875 -64.773438 125.976562 -67.394531 125.976562 -71.679688 L 125.976562 -90.257812 C 125.976562 -94.542969 124.546875 -97.164062 119.070312 -97.164062 L 55.25 -97.164062 L 55.25 -123.121094 L 127.167969 -123.121094 C 132.644531 -123.121094 134.074219 -125.738281 134.074219 -130.027344 L 134.074219 -149.792969 C 134.074219 -154.078125 132.644531 -156.699219 127.167969 -156.699219 L 24.527344 -156.699219 C 19.050781 -156.699219 17.621094 -154.078125 17.621094 -149.792969 L 17.621094 -6.90625 C 17.621094 -2.621094 19.050781 0 24.527344 0 L 131.214844 0 C 136.695312 0 138.121094 -2.621094 138.121094 -6.90625 L 138.121094 -26.433594 C 138.121094 -30.71875 136.695312 -33.339844 131.214844 -33.339844 Z M 131.214844 -33.339844 "/></g></g></g><g fill="#00ffff" fill-opacity="1"><g transform="translate(170.695959, 259.133751)"><g><path d="M 148.125 -156.699219 L 115.976562 -156.699219 C 110.5 -156.699219 108.832031 -156.222656 104.066406 -150.980469 L 54.773438 -96.6875 L 54.773438 -149.792969 C 54.773438 -155.269531 52.152344 -156.699219 48.105469 -156.699219 L 24.527344 -156.699219 C 20.003906 -156.699219 17.621094 -155.269531 17.621094 -149.792969 L 17.621094 -6.90625 C 17.621094 -1.429688 20.003906 0 24.527344 0 L 48.105469 0 C 52.152344 0 54.773438 -1.429688 54.773438 -6.90625 L 54.773438 -49.296875 L 69.539062 -64.773438 C 82.398438 -43.34375 103.59375 -7.621094 103.59375 -7.621094 C 106.6875 -2.621094 109.785156 0 115.5 0 L 144.550781 0 C 149.078125 0 150.03125 -4.523438 148.125 -7.621094 L 96.925781 -91.921875 L 150.507812 -150.03125 C 152.648438 -152.171875 152.648438 -156.699219 148.125 -156.699219 Z M 148.125 -156.699219 "/></g></g></g><g fill="#272727" fill-opacity="1"><g transform="translate(27.426212, 262.348135)"><g><path d="M 131.214844 -33.339844 L 55.25 -33.339844 L 55.25 -64.773438 L 119.070312 -64.773438 C 124.546875 -64.773438 125.976562 -67.394531 125.976562 -71.679688 L 125.976562 -90.257812 C 125.976562 -94.542969 124.546875 -97.164062 119.070312 -97.164062 L 55.25 -97.164062 L 55.25 -123.121094 L 127.167969 -123.121094 C 132.644531 -123.121094 134.074219 -125.738281 134.074219 -130.027344 L 134.074219 -149.792969 C 134.074219 -154.078125 132.644531 -156.699219 127.167969 -156.699219 L 24.527344 -156.699219 C 19.050781 -156.699219 17.621094 -154.078125 17.621094 -149.792969 L 17.621094 -6.90625 C 17.621094 -2.621094 19.050781 0 24.527344 0 L 131.214844 0 C 136.695312 0 138.121094 -2.621094 138.121094 -6.90625 L 138.121094 -26.433594 C 138.121094 -30.71875 136.695312 -33.339844 131.214844 -33.339844 Z M 131.214844 -33.339844 "/></g></g></g><g fill="#272727" fill-opacity="1"><g transform="translate(176.741335, 262.348135)"><g><path d="M 148.125 -156.699219 L 115.976562 -156.699219 C 110.5 -156.699219 108.832031 -156.222656 104.066406 -150.980469 L 54.773438 -96.6875 L 54.773438 -149.792969 C 54.773438 -155.269531 52.152344 -156.699219 48.105469 -156.699219 L 24.527344 -156.699219 C 20.003906 -156.699219 17.621094 -155.269531 17.621094 -149.792969 L 17.621094 -6.90625 C 17.621094 -1.429688 20.003906 0 24.527344 0 L 48.105469 0 C 52.152344 0 54.773438 -1.429688 54.773438 -6.90625 L 54.773438 -49.296875 L 69.539062 -64.773438 C 82.398438 -43.34375 103.59375 -7.621094 103.59375 -7.621094 C 106.6875 -2.621094 109.785156 0 115.5 0 L 144.550781 0 C 149.078125 0 150.03125 -4.523438 148.125 -7.621094 L 96.925781 -91.921875 L 150.507812 -150.03125 C 152.648438 -152.171875 152.648438 -156.699219 148.125 -156.699219 Z M 148.125 -156.699219 "/></g></g></g></svg>