<?xml version="1.0" encoding="UTF-8" ?>
<!DOCTYPE svg PUBLIC "-//W3C//DTD SVG 1.1//EN" "http://www.w3.org/Graphics/SVG/1.1/DTD/svg11.dtd">
<svg width="916pt" height="809pt" viewBox="0 0 916 809" version="1.1" xmlns="http://www.w3.org/2000/svg">
<g id="#ffffffff">
<path fill="#ffffff" opacity="1.00" d=" M 0.00 0.00 L 916.00 0.00 L 916.00 809.00 L 0.00 809.00 L 0.00 0.00 M 365.37 145.26 C 361.49 155.64 358.33 166.29 354.28 176.60 C 346.68 176.33 339.06 176.95 331.49 176.26 C 331.55 172.16 331.61 168.06 331.48 163.96 C 331.21 157.65 325.41 151.99 319.01 152.40 C 309.00 152.40 298.99 152.38 288.98 152.41 C 284.16 152.07 279.97 155.63 277.81 159.67 C 275.85 165.09 276.90 170.92 276.59 176.55 C 273.04 176.58 269.48 176.45 265.94 176.73 C 262.12 177.24 258.50 178.92 254.60 178.74 C 254.61 179.03 254.64 179.62 254.65 179.91 C 237.75 186.02 226.41 203.28 225.66 220.99 C 225.55 268.98 225.80 316.97 225.53 364.96 C 225.39 385.30 225.51 405.65 225.47 426.00 C 225.59 429.72 224.94 433.75 227.05 437.09 C 227.42 438.94 227.33 440.99 228.44 442.62 C 231.16 447.17 233.12 452.24 236.87 456.11 C 245.47 466.37 258.69 472.18 271.99 472.37 C 391.67 472.34 511.34 472.38 631.01 472.36 C 633.94 472.26 636.82 471.61 639.72 471.22 C 653.07 468.57 664.59 459.43 671.07 447.57 C 672.15 445.50 672.81 443.26 673.27 440.98 L 673.81 440.68 C 673.82 441.02 673.83 441.71 673.84 442.06 C 674.66 439.37 676.20 436.85 676.46 434.03 C 676.34 363.03 676.41 292.00 676.38 220.98 C 676.39 216.60 675.73 212.03 673.63 208.13 C 672.51 202.30 668.84 197.30 665.32 192.66 C 656.66 182.52 643.41 176.11 629.99 176.55 C 596.03 176.58 562.07 176.54 528.11 176.57 C 524.45 166.50 521.09 156.33 517.60 146.21 C 516.08 141.85 511.85 138.05 507.02 138.40 C 463.34 138.35 419.66 138.38 375.99 138.39 C 371.46 138.05 366.95 141.04 365.37 145.26 M 610.21 495.07 C 609.46 503.36 609.88 511.69 609.76 520.00 C 609.75 535.01 609.78 550.02 609.70 565.03 C 609.61 566.90 610.08 568.73 610.87 570.44 C 625.58 570.39 640.30 570.64 655.00 570.34 C 657.61 568.46 655.93 564.43 656.31 561.68 C 649.21 561.24 642.10 561.54 635.00 561.46 C 629.92 561.53 624.81 561.14 619.77 561.85 C 618.91 553.41 619.68 544.87 619.40 536.39 C 628.94 536.48 638.48 536.40 648.02 536.45 C 649.49 536.29 651.67 536.83 652.39 535.05 C 652.63 532.50 652.39 529.93 652.14 527.40 C 641.30 527.41 630.45 527.52 619.62 527.34 C 619.41 519.96 619.23 512.57 619.69 505.20 C 629.13 505.41 638.58 505.20 648.02 505.33 C 650.21 505.42 652.39 505.11 654.49 504.47 C 654.58 501.68 654.56 498.90 654.54 496.12 C 654.27 495.74 653.72 494.99 653.45 494.61 C 644.68 493.91 635.81 494.58 627.00 494.36 C 621.40 494.46 615.72 493.82 610.21 495.07 M 321.09 497.29 C 313.14 502.24 307.35 510.59 305.74 519.85 C 303.39 531.88 303.65 544.93 309.10 556.13 C 312.26 561.37 316.29 566.54 322.04 569.07 C 329.29 572.63 338.29 572.60 345.33 568.52 C 355.08 564.04 360.07 553.17 361.45 543.04 C 361.74 533.32 362.51 523.32 359.26 513.97 C 355.92 507.07 351.37 500.04 344.02 496.97 C 336.84 493.54 328.18 493.78 321.09 497.29 M 396.48 495.48 C 395.74 517.64 396.36 539.82 396.12 561.99 C 396.22 564.75 395.82 567.63 396.71 570.31 C 399.55 571.36 402.65 570.69 405.60 570.61 C 406.37 565.77 406.26 560.87 406.20 556.00 C 406.22 539.33 406.19 522.67 406.23 506.00 C 406.07 502.62 406.70 498.93 405.20 495.81 C 402.48 494.66 399.35 495.49 396.48 495.48 M 559.64 497.80 C 549.53 503.80 544.45 515.66 543.56 527.00 C 543.38 534.55 542.94 542.31 545.45 549.58 C 547.35 557.20 552.72 563.54 559.09 567.91 C 564.96 571.75 572.32 570.64 578.97 570.71 C 584.81 571.06 589.76 567.53 594.31 564.33 C 596.64 562.51 599.67 560.43 599.37 557.07 C 599.42 550.04 599.40 543.01 599.37 535.98 C 599.42 534.46 599.18 532.06 597.04 532.47 C 589.29 532.57 581.48 531.96 573.78 532.81 C 573.11 535.68 573.53 538.65 573.91 541.54 C 579.27 541.44 584.64 541.24 590.00 541.57 C 592.23 545.64 591.84 551.10 590.41 555.42 C 584.78 560.69 576.68 563.93 568.98 561.94 C 561.86 560.55 556.16 554.72 553.98 547.94 C 551.61 541.56 552.44 534.65 552.35 528.00 C 552.40 519.17 556.22 509.76 564.27 505.38 C 570.75 502.58 579.13 502.43 584.65 507.36 C 588.27 510.04 589.62 514.50 590.55 518.70 C 593.04 518.65 595.46 518.08 597.80 517.25 C 597.77 507.30 590.61 497.59 580.77 495.46 C 573.76 493.57 566.17 494.87 559.64 497.80 M 505.04 496.97 C 502.67 505.22 500.11 513.41 497.65 521.64 C 496.08 526.50 494.10 531.27 493.38 536.37 C 493.19 536.43 492.79 536.54 492.60 536.60 C 490.40 548.10 484.54 558.74 483.33 570.44 C 486.34 570.51 489.38 570.51 492.31 569.68 C 492.35 567.26 492.64 564.83 493.65 562.61 C 495.51 558.08 496.18 553.20 497.60 548.54 C 505.91 547.21 514.45 547.38 522.78 548.38 C 525.56 555.53 526.56 563.39 530.08 570.21 C 532.78 570.63 535.57 570.61 538.28 570.18 C 538.76 567.41 537.29 564.76 536.67 562.11 C 529.20 540.26 522.05 518.31 514.67 496.42 C 511.48 495.94 507.93 494.96 505.04 496.97 M 246.39 496.39 C 246.25 521.08 246.17 545.77 246.43 570.46 C 249.12 570.49 251.83 570.43 254.47 569.81 C 254.23 552.43 254.40 535.05 254.38 517.67 C 254.96 517.57 256.12 517.36 256.70 517.25 C 257.60 519.60 258.66 521.91 259.98 524.07 C 268.22 538.91 276.15 553.92 284.20 568.86 C 285.31 570.94 288.05 570.39 290.01 570.50 C 291.59 570.73 293.83 570.07 293.46 568.03 C 293.51 544.19 293.59 520.33 293.41 496.49 C 290.83 496.34 288.25 496.34 285.68 496.50 C 285.39 514.76 285.80 533.04 285.49 551.31 C 282.53 549.29 281.64 545.70 279.97 542.74 C 273.63 531.75 267.64 520.56 261.69 509.36 C 259.14 505.06 257.10 500.42 254.04 496.45 C 251.50 496.19 248.94 496.33 246.39 496.39 M 418.75 498.01 C 418.39 516.99 418.71 536.00 418.61 555.00 C 418.71 560.18 418.19 565.43 419.20 570.56 C 421.62 570.52 424.05 570.56 426.47 570.29 C 427.60 569.59 427.91 568.31 427.85 567.06 C 427.93 551.82 427.65 536.56 428.03 521.32 C 428.63 521.41 429.83 521.59 430.43 521.68 C 433.82 535.16 438.11 548.41 441.29 561.95 C 442.11 564.70 442.41 567.75 444.10 570.15 C 446.79 570.89 449.62 570.37 452.27 569.65 C 453.80 557.80 458.64 546.68 461.24 535.05 C 461.91 532.27 462.29 529.24 464.22 527.00 C 464.28 526.52 464.38 525.56 464.43 525.08 C 465.28 524.40 466.14 523.72 467.00 523.05 C 466.93 536.71 467.26 550.36 467.06 564.02 C 467.17 566.23 466.60 568.90 468.55 570.51 C 471.07 569.92 476.27 571.98 476.45 568.03 C 476.47 544.21 476.61 520.39 476.40 496.57 C 472.50 496.31 468.50 495.91 464.70 497.04 C 463.60 504.57 460.91 511.74 459.01 519.08 C 455.87 531.38 451.92 543.47 448.93 555.80 C 448.15 555.29 447.40 554.78 446.63 554.28 C 444.54 544.40 441.27 534.83 438.85 525.03 C 436.12 515.58 434.14 505.90 430.96 496.60 C 427.29 496.15 423.57 496.18 419.90 496.44 C 419.61 496.83 419.03 497.61 418.75 498.01 M 283.14 598.41 C 290.01 623.07 298.72 647.21 305.70 671.84 C 308.37 672.89 311.30 672.56 314.11 672.43 C 317.82 663.69 320.00 654.37 323.14 645.42 C 327.92 629.74 333.46 614.26 337.78 598.46 C 335.17 598.38 332.55 598.25 329.96 598.53 C 325.37 611.82 321.72 625.42 317.54 638.85 C 316.38 642.80 314.85 646.68 314.24 650.78 C 314.06 650.24 313.88 649.71 313.70 649.19 C 313.62 653.19 312.00 656.91 311.31 660.81 C 310.87 660.76 309.98 660.68 309.54 660.63 C 308.77 657.94 308.17 655.20 307.56 652.48 C 307.36 652.45 306.96 652.39 306.76 652.36 C 306.52 648.19 304.88 644.30 303.82 640.31 C 299.94 626.47 295.47 612.78 292.04 598.81 C 289.15 597.98 286.09 598.52 283.14 598.41 M 354.82 598.55 C 354.68 599.66 354.48 600.77 354.23 601.87 C 349.17 618.22 344.04 634.54 338.94 650.88 C 337.00 657.85 334.06 664.57 333.03 671.76 C 335.76 671.80 338.50 671.82 341.24 671.64 C 342.75 664.68 345.80 658.10 346.73 651.02 C 349.72 650.03 352.91 650.46 356.00 650.39 C 361.35 650.47 366.71 650.25 372.06 650.47 C 372.32 650.76 372.82 651.35 373.08 651.65 C 375.58 658.48 376.66 665.88 379.92 672.41 C 382.52 672.63 385.13 672.53 387.74 672.57 C 387.98 667.44 385.33 662.88 383.98 658.08 C 381.64 650.50 378.77 643.10 376.62 635.48 C 376.39 635.45 375.94 635.39 375.71 635.36 C 375.49 629.34 371.65 624.18 371.27 618.18 C 371.09 618.74 370.90 619.30 370.72 619.88 C 369.41 612.55 366.54 605.55 364.04 598.56 C 360.98 598.17 357.89 598.39 354.82 598.55 M 418.39 598.79 C 418.36 623.36 418.23 647.95 418.45 672.53 C 430.87 672.42 443.29 672.73 455.70 672.37 C 455.67 669.40 455.65 666.44 455.58 663.48 C 446.03 663.51 436.47 663.53 426.92 663.49 C 426.03 662.17 426.51 660.48 426.37 659.01 C 426.43 642.01 426.37 625.01 426.40 608.00 C 426.36 604.78 426.69 601.49 425.68 598.38 C 423.26 598.51 420.71 597.99 418.39 598.79 M 481.98 598.37 C 480.15 602.16 479.35 606.32 477.98 610.29 C 471.82 629.49 466.10 648.83 459.88 668.02 C 459.51 669.50 459.32 671.01 459.30 672.56 C 462.26 672.46 465.46 673.05 468.14 671.42 C 468.99 664.20 471.93 657.42 473.80 650.43 C 482.23 650.38 490.66 650.31 499.09 650.48 C 501.26 657.82 503.42 665.18 506.05 672.37 C 508.94 672.67 511.87 672.51 514.78 672.47 C 513.98 668.16 512.29 664.09 511.00 659.91 C 506.61 646.94 502.27 633.96 498.02 620.95 C 496.98 617.87 495.75 614.82 495.28 611.60 C 495.12 611.55 494.80 611.47 494.64 611.42 C 493.49 607.07 492.26 602.70 490.32 598.64 C 487.56 598.15 484.75 598.45 481.98 598.37 M 577.37 598.38 C 577.35 623.10 577.29 647.82 577.41 672.54 C 589.79 672.51 602.17 672.49 614.56 672.55 C 614.62 669.53 614.62 666.50 614.53 663.49 C 605.01 663.50 595.48 663.55 585.96 663.47 L 585.49 662.75 C 585.15 641.30 585.66 619.83 585.24 598.38 C 582.61 598.40 579.99 598.39 577.37 598.38 M 624.71 598.34 C 624.37 623.05 624.57 647.77 624.61 672.48 C 639.54 672.55 654.48 672.54 669.42 672.49 C 668.92 669.64 670.93 665.37 668.14 663.51 C 656.36 663.49 644.58 663.50 632.81 663.52 C 632.37 655.67 632.60 647.81 632.64 639.96 C 632.96 639.62 633.60 638.95 633.92 638.61 C 644.49 638.49 655.08 638.56 665.65 638.58 C 665.71 635.65 665.70 632.73 665.65 629.80 C 654.70 629.43 643.73 629.76 632.78 629.63 C 632.45 622.22 632.48 614.78 632.75 607.37 C 642.85 607.35 652.95 607.37 663.05 607.37 C 664.60 607.39 666.14 607.11 667.66 606.76 C 668.57 604.00 668.39 601.11 667.58 598.36 C 653.29 598.39 639.00 598.44 624.71 598.34 M 234.27 666.34 C 233.58 668.34 233.29 670.45 233.07 672.56 C 235.66 672.21 238.81 673.24 241.06 671.97 C 243.69 664.94 245.06 657.46 247.75 650.42 C 256.12 650.51 264.52 650.08 272.88 650.64 C 274.09 654.01 274.94 657.51 275.92 660.96 C 277.35 664.50 278.41 668.16 279.63 671.78 C 282.39 671.80 285.16 671.81 287.93 671.75 C 287.70 669.61 287.46 667.48 286.68 665.48 C 283.45 655.38 279.91 645.38 276.67 635.28 C 275.42 631.28 273.42 627.44 273.30 623.18 C 273.11 623.74 272.92 624.31 272.74 624.88 C 272.39 621.80 271.29 618.90 270.25 616.01 C 268.10 610.19 266.55 604.17 264.20 598.42 C 261.37 598.37 258.54 598.37 255.71 598.38 C 248.32 620.96 241.47 643.71 234.27 666.34 M 396.54 598.54 C 396.11 621.35 396.52 644.18 396.33 667.00 C 396.38 668.76 396.13 670.59 396.70 672.31 C 399.21 672.27 402.92 673.80 404.46 671.13 C 404.49 647.73 404.48 624.33 404.47 600.93 C 404.93 596.67 399.10 598.78 396.54 598.54 M 521.43 598.38 C 521.30 623.10 521.27 647.83 521.45 672.55 C 529.63 672.49 537.81 672.56 546.00 672.51 C 551.83 672.41 558.19 670.74 561.94 665.95 C 565.12 661.68 566.92 656.34 566.52 651.00 C 566.93 644.65 564.14 637.78 558.47 634.51 C 557.73 633.95 555.64 633.07 556.99 631.99 C 566.21 624.65 565.82 608.60 556.43 601.56 C 553.46 599.32 549.67 598.40 545.99 598.40 C 537.80 598.36 529.61 598.42 521.43 598.38 Z" />
<path fill="#ffffff" opacity="1.00" d=" M 372.00 151.20 C 372.78 149.01 374.07 145.95 376.93 146.42 C 419.65 146.37 462.36 146.42 505.08 146.40 C 507.13 146.11 509.06 147.09 509.73 149.11 C 511.99 155.00 513.73 161.09 515.99 166.99 C 517.21 172.43 518.59 177.94 521.19 182.92 C 522.07 184.74 523.98 185.72 525.98 185.49 C 556.98 185.48 587.99 185.49 619.00 185.48 C 626.04 185.50 633.09 185.33 640.12 185.85 C 650.13 189.07 659.02 195.79 663.86 205.25 C 645.95 205.53 629.40 218.58 624.38 235.67 C 622.53 240.22 622.29 245.16 622.41 250.01 C 622.45 302.34 622.38 354.67 622.44 407.00 C 622.52 410.14 622.34 413.32 622.99 416.42 C 623.85 419.35 624.98 422.20 626.39 424.91 C 627.44 426.99 628.61 429.02 629.81 431.02 C 635.54 441.53 647.18 446.86 658.08 450.39 C 653.73 455.56 647.96 459.57 641.42 461.38 C 633.84 463.72 625.82 463.23 618.00 463.22 C 502.99 463.21 387.97 463.23 272.96 463.21 C 262.04 463.14 250.74 459.08 243.86 450.27 C 248.09 448.99 252.19 447.31 255.96 445.01 C 256.30 444.86 256.96 444.55 257.30 444.40 C 260.67 442.93 263.62 440.67 265.99 437.85 C 269.81 434.04 273.47 429.92 275.73 424.96 C 277.51 420.85 279.69 416.66 279.56 412.05 C 279.72 402.70 279.73 393.36 279.53 384.02 C 279.55 338.68 279.54 293.34 279.53 248.00 C 279.79 239.96 276.97 232.10 272.83 225.31 C 265.57 213.42 252.08 205.56 238.14 205.27 C 244.41 193.16 257.30 184.92 271.00 184.71 C 296.66 184.53 322.33 184.67 347.99 184.63 C 351.79 184.54 355.63 184.91 359.41 184.37 C 361.38 183.20 361.83 180.70 362.65 178.73 C 365.62 169.51 368.88 160.37 372.00 151.20 M 386.98 184.58 C 422.33 184.72 457.68 184.57 493.02 184.65 C 494.91 184.73 496.76 184.38 498.51 183.67 C 500.34 180.83 498.84 176.25 495.06 176.57 C 459.02 176.55 422.98 176.53 386.94 176.58 C 382.18 176.40 382.18 184.86 386.98 184.58 M 571.32 205.16 C 566.87 206.56 563.16 209.86 560.93 213.90 C 558.50 217.84 559.31 222.68 559.49 227.07 C 561.00 232.80 565.68 237.67 571.39 239.41 C 582.29 243.73 595.73 233.72 594.65 222.00 C 595.50 210.22 582.10 201.17 571.32 205.16 M 357.00 271.11 C 349.39 283.16 344.91 296.96 342.58 310.95 C 341.97 321.95 341.94 333.01 342.60 344.01 C 344.55 356.40 348.70 368.45 354.60 379.51 C 357.56 384.18 359.68 389.42 363.43 393.56 C 368.74 399.66 373.64 406.30 380.36 410.98 C 386.87 415.78 392.98 422.20 401.14 423.95 C 401.26 424.30 401.52 425.01 401.65 425.37 C 407.63 428.34 413.82 431.64 420.64 431.88 L 419.65 432.02 C 422.78 433.05 425.99 433.84 429.12 434.90 C 436.06 437.76 443.71 436.12 451.00 436.55 C 457.67 436.20 464.74 437.75 471.03 434.85 C 479.65 434.09 487.72 430.65 495.65 427.39 C 500.04 425.41 504.67 423.66 508.24 420.31 L 509.01 420.56 C 516.53 416.05 523.08 410.22 529.10 403.88 C 533.60 399.73 537.19 394.73 541.17 390.10 C 545.86 382.11 551.70 374.53 553.67 365.26 C 556.70 358.18 558.39 350.63 559.48 343.04 C 560.04 332.69 559.98 322.32 559.50 311.98 C 554.77 274.67 528.62 241.40 494.19 226.71 C 484.96 222.51 474.96 220.42 465.03 218.66 C 457.04 218.00 449.00 218.23 440.99 218.37 C 406.68 221.09 374.54 241.58 357.00 271.11 Z" />
<path fill="#ffffff" opacity="1.00" d=" M 234.73 213.43 C 241.09 213.78 247.70 214.47 253.28 217.81 C 262.91 223.11 269.34 233.04 271.37 243.75 C 271.60 297.16 271.32 350.58 271.54 404.00 C 271.93 412.66 269.04 421.45 263.51 428.14 C 260.43 431.87 256.53 434.78 252.66 437.62 C 247.77 439.99 242.37 441.61 236.90 441.43 C 235.81 437.35 234.19 433.33 234.37 429.04 C 234.36 360.37 234.30 291.69 234.34 223.01 C 234.35 219.81 234.53 216.62 234.73 213.43 Z" />
<path fill="#ffffff" opacity="1.00" d=" M 645.01 219.98 C 651.66 216.13 659.38 212.63 667.21 214.73 C 667.45 216.47 667.54 218.23 667.60 219.99 C 667.77 287.66 667.46 355.34 667.68 423.00 C 668.23 429.12 666.30 435.02 664.43 440.76 C 657.01 440.90 650.29 437.35 643.99 433.85 C 641.23 431.14 638.57 428.30 636.25 425.21 C 633.89 421.65 632.25 417.64 631.37 413.46 C 632.01 396.65 631.45 379.82 631.63 363.00 C 631.62 326.67 631.66 290.34 631.62 254.00 C 631.68 248.16 631.12 242.02 633.53 236.53 C 635.30 232.46 637.68 228.69 639.95 224.88 C 641.59 223.21 643.28 221.58 645.01 219.98 Z" />
<path fill="#ffffff" opacity="1.00" d=" M 382.41 319.95 C 385.07 290.24 409.52 264.19 438.94 259.48 C 446.97 259.06 455.03 259.05 463.05 259.48 C 482.50 262.70 499.91 275.10 510.25 291.77 C 514.47 300.14 518.12 308.91 519.35 318.28 C 520.14 328.30 520.03 338.60 516.60 348.18 C 512.02 362.93 502.03 375.72 489.36 384.43 C 480.64 389.71 470.95 393.19 460.96 395.10 C 451.39 398.34 441.50 394.99 432.08 392.97 C 424.19 390.46 416.47 387.02 409.56 382.45 C 396.47 372.77 387.09 358.22 383.61 342.32 C 381.68 335.03 382.37 327.40 382.41 319.95 M 423.38 299.15 C 422.16 300.23 420.98 302.21 422.07 303.78 C 424.65 308.10 428.89 311.07 432.26 314.73 C 436.17 318.91 440.69 322.55 444.16 327.12 C 444.00 328.86 442.26 329.94 441.24 331.24 C 435.45 336.78 429.95 342.60 424.23 348.19 C 422.90 349.67 420.79 351.62 422.13 353.76 C 423.11 356.68 427.09 357.47 429.13 355.12 C 435.78 349.14 441.76 342.43 448.24 336.26 C 449.39 335.19 451.13 333.48 452.55 335.23 C 459.86 341.65 466.07 349.28 473.51 355.55 C 476.84 358.97 482.88 353.07 479.21 349.78 C 472.88 342.81 465.80 336.52 459.32 329.68 C 458.26 328.71 457.59 326.97 458.82 325.85 C 462.87 321.24 467.48 317.15 471.75 312.74 C 474.70 309.61 478.48 307.01 480.26 302.97 C 480.92 299.37 476.10 296.93 473.42 299.23 C 469.55 302.74 465.99 306.60 462.19 310.19 C 458.47 313.70 455.29 317.86 451.00 320.71 C 446.91 317.98 443.84 314.06 440.31 310.70 C 436.55 307.11 432.93 303.38 429.19 299.77 C 427.84 298.18 424.98 297.87 423.38 299.15 Z" />
<path fill="#ffffff" opacity="1.00" d=" M 368.27 371.27 C 371.94 368.33 375.96 365.87 380.23 363.88 C 381.76 371.02 379.84 378.41 381.52 385.50 C 386.19 386.76 391.09 386.14 395.86 386.17 C 395.93 390.00 395.87 393.83 395.66 397.65 C 390.85 397.68 386.02 397.70 381.28 398.63 C 382.45 400.44 383.62 402.27 384.97 403.97 C 378.21 397.97 372.71 390.66 367.13 383.58 C 368.18 379.56 368.42 375.40 368.27 371.27 Z" />
<path fill="#ffffff" opacity="1.00" d=" M 529.90 387.82 C 532.77 385.70 534.70 382.59 537.11 380.00 C 533.19 387.68 526.53 393.34 521.17 399.96 C 521.07 399.24 520.86 397.79 520.75 397.07 C 516.07 396.66 511.17 395.94 506.63 397.53 C 504.09 398.45 502.63 401.27 502.79 403.87 C 504.06 407.26 508.00 407.67 511.04 408.42 C 506.29 411.17 501.60 414.02 497.01 417.03 C 495.03 414.65 492.72 412.34 491.88 409.27 C 490.53 404.19 491.50 398.88 492.64 393.85 C 489.89 395.03 487.07 396.04 484.24 397.03 C 490.95 393.58 497.29 389.42 502.87 384.33 C 503.17 384.74 503.76 385.55 504.06 385.96 C 509.54 385.29 515.12 384.72 520.61 385.61 C 523.76 386.11 526.75 387.33 529.90 387.82 Z" />
<path fill="#ffffff" opacity="1.00" d=" M 406.41 390.66 C 406.67 390.85 407.20 391.23 407.47 391.42 C 410.31 393.38 413.34 395.08 416.44 396.60 C 418.66 397.65 420.91 398.63 423.18 399.58 C 420.94 399.32 418.66 399.05 416.43 399.40 C 414.17 401.64 412.86 404.80 412.67 407.97 C 412.51 409.37 413.69 410.96 415.16 411.03 C 421.73 411.78 428.38 411.22 434.98 411.06 C 435.04 408.49 435.10 405.91 435.18 403.35 C 439.43 404.22 443.78 405.97 448.17 405.02 C 453.53 403.97 459.09 405.15 464.41 403.83 C 466.68 403.40 468.80 402.44 470.89 401.48 C 472.97 400.98 475.07 400.59 477.18 400.15 C 474.52 401.31 471.74 402.18 469.16 403.52 C 468.02 410.55 468.90 417.75 468.92 424.84 C 470.69 425.10 472.46 425.38 474.25 425.61 C 468.11 428.17 461.37 426.80 455.00 428.16 C 449.22 429.03 443.44 427.85 437.68 427.48 C 443.76 426.68 449.90 426.70 456.02 426.84 C 456.43 419.94 456.42 413.02 456.04 406.12 C 453.34 406.13 450.65 406.15 447.96 406.16 C 447.64 411.01 447.56 415.86 447.71 420.72 C 439.79 420.69 431.88 420.67 423.97 420.56 C 421.39 420.46 418.88 421.15 416.50 422.09 C 411.10 419.50 405.75 416.80 400.26 414.43 C 401.05 410.47 401.18 406.43 401.66 402.44 C 402.19 398.16 404.38 394.37 406.41 390.66 Z" />
<path fill="#ffffff" opacity="1.00" d=" M 328.35 504.28 C 333.80 502.46 340.17 503.73 344.48 507.53 C 349.53 511.92 352.46 518.45 353.35 524.99 C 353.43 533.07 354.58 541.57 351.17 549.18 C 348.45 556.22 342.20 563.22 334.00 562.68 C 325.51 563.76 318.34 557.10 315.42 549.69 C 312.37 542.51 313.55 534.57 313.41 527.00 C 313.45 517.59 318.55 506.72 328.35 504.28 Z" />
<path fill="#ffffff" opacity="1.00" d=" M 529.45 638.49 C 535.65 638.46 541.86 638.35 548.06 638.58 C 552.42 638.55 556.06 642.05 557.48 645.96 C 557.84 649.30 557.84 652.69 557.49 656.04 C 556.14 660.05 552.43 663.41 548.05 663.45 C 541.90 663.53 535.74 663.63 529.59 663.38 C 529.17 655.10 529.46 646.78 529.45 638.49 Z" />
</g>
<g id="#040404ff">
<path fill="#040404" opacity="1.00" d=" M 365.37 145.26 C 366.95 141.04 371.46 138.05 375.99 138.39 C 419.66 138.38 463.34 138.35 507.02 138.40 C 511.85 138.05 516.08 141.85 517.60 146.21 C 521.09 156.33 524.45 166.50 528.11 176.57 C 562.07 176.54 596.03 176.58 629.99 176.55 C 643.41 176.11 656.66 182.52 665.32 192.66 C 668.84 197.30 672.51 202.30 673.63 208.13 C 673.68 214.09 674.47 220.00 674.68 225.95 C 674.64 273.63 674.69 321.32 674.66 369.00 C 674.65 375.11 675.04 381.26 674.09 387.33 C 671.96 385.73 668.93 384.15 669.33 380.99 C 669.36 328.99 669.30 276.97 669.37 224.97 C 669.38 220.70 668.34 216.55 667.13 212.50 C 659.26 212.32 650.60 213.99 645.01 219.98 C 643.28 221.58 641.59 223.21 639.95 224.88 C 635.01 228.86 632.75 234.94 630.73 240.74 C 628.52 245.88 629.32 251.57 629.29 257.00 C 629.30 302.34 629.29 347.67 629.29 393.00 C 629.37 398.60 629.36 404.20 628.99 409.79 C 627.32 409.78 625.66 409.77 624.00 409.77 C 623.29 393.20 623.88 376.59 623.69 360.00 C 623.70 331.67 623.68 303.34 623.69 275.00 C 623.76 261.89 623.33 248.76 624.38 235.67 C 629.40 218.58 645.95 205.53 663.86 205.25 C 659.02 195.79 650.13 189.07 640.12 185.85 C 636.93 184.53 633.57 183.39 630.07 183.46 C 596.04 183.59 562.01 183.40 527.98 183.57 C 526.10 183.50 524.16 183.51 522.42 182.78 C 519.87 177.68 518.84 171.96 515.99 166.99 C 513.73 161.09 511.99 155.00 509.73 149.11 C 509.06 147.09 507.13 146.11 505.08 146.40 C 462.36 146.42 419.65 146.37 376.93 146.42 C 374.07 145.95 372.78 149.01 372.00 151.20 C 368.88 160.37 365.62 169.51 362.65 178.73 C 361.83 180.70 361.38 183.20 359.41 184.37 C 355.63 184.91 351.79 184.54 347.99 184.63 C 322.33 184.67 296.66 184.53 271.00 184.71 C 257.30 184.92 244.41 193.16 238.14 205.27 C 252.08 205.56 265.57 213.42 272.83 225.31 C 276.97 232.10 279.79 239.96 279.53 248.00 C 279.54 293.34 279.55 338.68 279.53 384.02 C 279.73 393.36 279.72 402.70 279.56 412.05 C 279.69 416.66 277.51 420.85 275.73 424.96 C 272.28 416.07 273.57 406.32 273.38 397.00 C 273.75 389.98 272.55 383.02 272.35 376.02 C 272.44 337.01 272.36 298.01 272.40 259.00 C 272.43 253.90 272.88 248.70 271.37 243.75 C 269.34 233.04 262.91 223.11 253.28 217.81 C 247.70 214.47 241.09 213.78 234.73 213.43 C 234.53 216.62 234.35 219.81 234.34 223.01 C 234.30 291.69 234.36 360.37 234.37 429.04 C 234.19 433.33 235.81 437.35 236.90 441.43 C 242.37 441.61 247.77 439.99 252.66 437.62 C 252.89 439.61 253.11 441.61 253.33 443.62 C 254.65 443.87 255.97 444.13 257.30 444.40 C 256.96 444.55 256.30 444.86 255.96 445.01 C 251.17 446.22 246.52 447.95 241.78 449.34 C 248.43 459.05 260.35 464.54 272.01 464.29 C 391.34 464.29 510.67 464.30 629.99 464.28 C 640.91 464.64 651.51 459.61 658.82 451.64 C 661.58 447.78 666.48 445.32 671.07 447.57 C 664.59 459.43 653.07 468.57 639.72 471.22 C 636.82 471.61 633.94 472.26 631.01 472.36 C 511.34 472.38 391.67 472.34 271.99 472.37 C 258.69 472.18 245.47 466.37 236.87 456.11 C 233.12 452.24 231.16 447.17 228.44 442.62 C 227.33 440.99 227.42 438.94 227.05 437.09 C 228.18 439.28 229.55 441.33 230.98 443.35 C 231.74 434.58 231.18 425.78 231.35 417.00 C 231.50 409.87 230.50 402.57 232.62 395.63 C 234.46 390.71 231.21 386.00 231.27 381.07 C 230.89 375.13 232.79 368.66 229.51 363.25 C 228.18 363.81 226.85 364.38 225.53 364.96 C 225.80 316.97 225.55 268.98 225.66 220.99 C 226.41 203.28 237.75 186.02 254.65 179.91 C 254.64 179.62 254.61 179.03 254.60 178.74 C 258.50 178.92 262.12 177.24 265.94 176.73 C 269.48 176.45 273.04 176.58 276.59 176.55 C 276.90 170.92 275.85 165.09 277.81 159.67 C 279.97 155.63 284.16 152.07 288.98 152.41 C 298.99 152.38 309.00 152.40 319.01 152.40 C 325.41 151.99 331.21 157.65 331.48 163.96 C 331.61 168.06 331.55 172.16 331.49 176.26 C 339.06 176.95 346.68 176.33 354.28 176.60 C 358.33 166.29 361.49 155.64 365.37 145.26 M 285.79 162.14 C 284.90 166.88 285.47 171.75 285.44 176.55 C 297.68 176.57 309.92 176.57 322.16 176.55 C 324.60 174.44 323.03 170.79 323.49 167.97 C 323.92 164.92 322.63 160.75 319.07 160.51 C 309.37 160.40 299.66 160.43 289.96 160.50 C 288.35 160.33 287.00 161.20 285.79 162.14 Z" />
<path fill="#040404" opacity="1.00" d=" M 386.98 184.58 C 382.18 184.86 382.18 176.40 386.94 176.58 C 422.98 176.53 459.02 176.55 495.06 176.57 C 498.84 176.25 500.34 180.83 498.51 183.67 C 496.76 184.38 494.91 184.73 493.02 184.65 C 457.68 184.57 422.33 184.72 386.98 184.58 Z" />
<path fill="#040404" opacity="1.00" d=" M 571.32 205.16 C 582.10 201.17 595.50 210.22 594.65 222.00 C 595.73 233.72 582.29 243.73 571.39 239.41 C 565.68 237.67 561.00 232.80 559.49 227.07 C 559.31 222.68 558.50 217.84 560.93 213.90 C 563.16 209.86 566.87 206.56 571.32 205.16 M 572.52 213.65 C 566.20 216.29 565.48 226.08 570.97 229.94 C 573.42 232.25 576.99 231.80 580.06 231.51 C 585.70 229.55 588.82 221.90 584.91 217.00 C 582.41 212.91 576.72 211.19 572.52 213.65 Z" />
<path fill="#040404" opacity="1.00" d=" M 391.32 278.34 C 403.97 262.74 423.02 252.57 442.99 250.54 C 447.98 250.34 452.99 250.37 458.00 250.49 C 483.94 252.50 508.03 268.95 519.80 292.11 C 527.61 307.36 530.51 325.33 526.89 342.16 C 523.73 358.29 515.34 373.55 502.87 384.33 C 497.29 389.42 490.95 393.58 484.24 397.03 C 483.82 397.20 482.98 397.55 482.56 397.73 C 480.54 397.18 478.39 396.18 476.30 397.01 C 473.97 397.73 472.50 399.81 470.89 401.48 C 468.80 402.44 466.68 403.40 464.41 403.83 C 461.46 403.31 458.56 402.55 455.70 401.68 C 453.56 402.15 451.42 402.61 449.29 403.04 C 449.26 401.16 449.24 399.28 449.22 397.41 C 457.38 397.60 465.43 395.83 473.16 393.36 C 479.72 390.93 486.44 388.43 491.90 383.93 C 498.52 378.55 504.98 372.69 509.46 365.33 C 518.66 350.89 523.94 333.07 520.25 316.01 C 518.25 307.49 515.73 298.76 510.25 291.77 C 499.91 275.10 482.50 262.70 463.05 259.48 C 455.03 259.05 446.97 259.06 438.94 259.48 C 409.52 264.19 385.07 290.24 382.41 319.95 C 382.37 327.40 381.68 335.03 383.61 342.32 C 387.09 358.22 396.47 372.77 409.56 382.45 C 409.90 383.71 410.25 384.97 410.61 386.24 C 408.14 386.95 405.64 387.57 403.13 388.09 C 381.32 370.89 369.38 341.42 374.92 313.98 C 377.07 300.91 382.86 288.52 391.32 278.34 Z" />
<path fill="#040404" opacity="1.00" d=" M 669.43 387.84 C 671.27 388.69 673.58 389.37 674.39 391.47 C 675.04 394.86 674.66 398.35 674.69 401.78 C 673.12 402.47 671.55 403.15 669.99 403.84 C 669.02 398.56 669.21 393.17 669.43 387.84 Z" />
<path fill="#040404" opacity="1.00" d=" M 519.73 401.41 C 523.02 401.41 526.27 402.12 529.10 403.88 C 523.08 410.22 516.53 416.05 509.01 420.56 L 508.24 420.31 C 505.32 419.37 502.44 418.33 499.63 417.13 C 505.79 412.41 513.90 409.97 518.13 403.04 C 518.53 402.63 519.33 401.82 519.73 401.41 Z" />
<path fill="#040404" opacity="1.00" d=" M 638.88 439.18 C 636.63 434.91 634.10 430.07 636.25 425.21 C 638.57 428.30 641.23 431.14 643.99 433.85 C 647.84 438.91 654.29 440.61 660.23 441.80 C 662.07 441.89 664.80 442.76 665.73 440.54 C 667.84 436.33 668.10 431.45 669.97 427.13 C 671.54 427.55 673.12 427.98 674.70 428.41 C 674.07 432.47 673.67 436.57 673.81 440.68 L 673.27 440.98 C 669.31 443.23 664.98 445.08 660.36 445.14 C 656.48 445.17 652.59 445.04 648.72 445.24 C 645.12 443.79 641.73 441.82 638.88 439.18 Z" />
<path fill="#040404" opacity="1.00" d=" M 430.12 433.78 C 432.46 432.23 434.61 430.41 436.63 428.46 C 439.84 430.41 443.12 432.25 446.33 434.20 C 443.78 436.66 440.44 435.03 437.50 434.39 C 435.09 433.76 432.59 433.75 430.12 433.78 Z" />
<path fill="#040404" opacity="1.00" d=" M 283.14 598.41 C 286.09 598.52 289.15 597.98 292.04 598.81 C 295.47 612.78 299.94 626.47 303.82 640.31 C 304.88 644.30 306.52 648.19 306.76 652.36 C 306.96 652.39 307.36 652.45 307.56 652.48 C 308.17 655.20 308.77 657.94 309.54 660.63 C 309.98 660.68 310.87 660.76 311.31 660.81 C 312.00 656.91 313.62 653.19 313.70 649.19 C 313.88 649.71 314.06 650.24 314.24 650.78 C 314.85 646.68 316.38 642.80 317.54 638.85 C 321.72 625.42 325.37 611.82 329.96 598.53 C 332.55 598.25 335.17 598.38 337.78 598.46 C 333.46 614.26 327.92 629.74 323.14 645.42 C 320.00 654.37 317.82 663.69 314.11 672.43 C 311.30 672.56 308.37 672.89 305.70 671.84 C 298.72 647.21 290.01 623.07 283.14 598.41 Z" />
<path fill="#040404" opacity="1.00" d=" M 354.82 598.55 C 357.89 598.39 360.98 598.17 364.04 598.56 C 366.54 605.55 369.41 612.55 370.72 619.88 C 370.90 619.30 371.09 618.74 371.27 618.18 C 371.65 624.18 375.49 629.34 375.71 635.36 C 375.94 635.39 376.39 635.45 376.62 635.48 C 378.77 643.10 381.64 650.50 383.98 658.08 C 385.33 662.88 387.98 667.44 387.74 672.57 C 385.13 672.53 382.52 672.63 379.92 672.41 C 376.66 665.88 375.58 658.48 373.08 651.65 C 372.82 651.35 372.32 650.76 372.06 650.47 C 366.71 650.25 361.35 650.47 356.00 650.39 C 352.91 650.46 349.72 650.03 346.73 651.02 C 345.80 658.10 342.75 664.68 341.24 671.64 C 338.50 671.82 335.76 671.80 333.03 671.76 C 334.06 664.57 337.00 657.85 338.94 650.88 C 344.04 634.54 349.17 618.22 354.23 601.87 C 354.48 600.77 354.68 599.66 354.82 598.55 M 358.69 608.41 C 358.59 614.49 356.27 620.20 354.68 625.99 C 353.28 631.20 350.80 636.23 351.11 641.76 C 357.03 641.71 362.95 641.75 368.87 641.74 C 369.28 636.65 366.08 632.22 366.35 627.17 C 366.15 627.74 365.95 628.32 365.76 628.90 C 364.24 622.08 361.66 615.55 360.35 608.68 C 359.93 608.61 359.10 608.48 358.69 608.41 Z" />
<path fill="#040404" opacity="1.00" d=" M 481.98 598.37 C 484.75 598.45 487.56 598.15 490.32 598.64 C 492.26 602.70 493.49 607.07 494.64 611.42 C 494.80 611.47 495.12 611.55 495.28 611.60 C 495.75 614.82 496.98 617.87 498.02 620.95 C 502.27 633.96 506.61 646.94 511.00 659.91 C 512.29 664.09 513.98 668.16 514.78 672.47 C 511.87 672.51 508.94 672.67 506.05 672.37 C 503.42 665.18 501.26 657.82 499.09 650.48 C 490.66 650.31 482.23 650.38 473.80 650.43 C 471.93 657.42 468.99 664.20 468.14 671.42 C 465.46 673.05 462.26 672.46 459.30 672.56 C 459.32 671.01 459.51 669.50 459.88 668.02 C 466.10 648.83 471.82 629.49 477.98 610.29 C 479.35 606.32 480.15 602.16 481.98 598.37 M 486.00 607.81 C 483.32 619.06 479.80 630.09 476.36 641.12 C 476.78 641.40 477.61 641.95 478.02 642.23 C 484.02 642.09 490.22 643.10 496.06 641.46 C 492.80 630.22 489.34 619.03 486.00 607.81 Z" />
<path fill="#040404" opacity="1.00" d=" M 234.27 666.34 C 241.47 643.71 248.32 620.96 255.71 598.38 C 258.54 598.37 261.37 598.37 264.20 598.42 C 266.55 604.17 268.10 610.19 270.25 616.01 C 271.29 618.90 272.39 621.80 272.74 624.88 C 272.92 624.31 273.11 623.74 273.30 623.18 C 273.42 627.44 275.42 631.28 276.67 635.28 C 279.91 645.38 283.45 655.38 286.68 665.48 C 287.46 667.48 287.70 669.61 287.93 671.75 C 285.16 671.81 282.39 671.80 279.63 671.78 C 278.41 668.16 277.35 664.50 275.92 660.96 C 274.94 657.51 274.09 654.01 272.88 650.64 C 264.52 650.08 256.12 650.51 247.75 650.42 C 245.06 657.46 243.69 664.94 241.06 671.97 C 238.81 673.24 235.66 672.21 233.07 672.56 C 233.29 670.45 233.58 668.34 234.27 666.34 M 253.93 628.04 C 253.10 632.64 251.01 636.98 251.12 641.74 C 257.04 641.75 262.96 641.70 268.88 641.77 C 269.25 636.97 267.07 632.63 266.24 628.02 C 265.99 628.91 265.77 629.83 265.49 630.73 C 266.17 626.07 263.84 621.87 262.70 617.50 C 261.91 614.59 261.22 611.64 259.92 608.91 C 257.25 615.06 256.95 622.01 253.93 628.04 Z" />
<path fill="#040404" opacity="1.00" d=" M 396.54 598.54 C 399.10 598.78 404.93 596.67 404.47 600.93 C 404.48 624.33 404.49 647.73 404.46 671.13 C 402.92 673.80 399.21 672.27 396.70 672.31 C 396.13 670.59 396.38 668.76 396.33 667.00 C 396.52 644.18 396.11 621.35 396.54 598.54 Z" />
</g>
<g id="#fdfdfdff">
<path fill="#fdfdfd" opacity="1.00" d=" M 285.79 162.14 C 287.00 161.20 288.35 160.33 289.96 160.50 C 299.66 160.43 309.37 160.40 319.07 160.51 C 322.63 160.75 323.92 164.92 323.49 167.97 C 323.03 170.79 324.60 174.44 322.16 176.55 C 309.92 176.57 297.68 176.57 285.44 176.55 C 285.47 171.75 284.90 166.88 285.79 162.14 Z" />
<path fill="#fdfdfd" opacity="1.00" d=" M 447.96 406.16 C 450.65 406.15 453.34 406.13 456.04 406.12 C 456.42 413.02 456.43 419.94 456.02 426.84 C 449.90 426.70 443.76 426.68 437.68 427.48 C 430.47 426.52 423.27 424.77 416.50 422.09 C 418.88 421.15 421.39 420.46 423.97 420.56 C 431.88 420.67 439.79 420.69 447.71 420.72 C 447.56 415.86 447.64 411.01 447.96 406.16 Z" />
<path fill="#fdfdfd" opacity="1.00" d=" M 358.69 608.41 C 359.10 608.48 359.93 608.61 360.35 608.68 C 361.66 615.55 364.24 622.08 365.76 628.90 C 365.95 628.32 366.15 627.74 366.35 627.17 C 366.08 632.22 369.28 636.65 368.87 641.74 C 362.95 641.75 357.03 641.71 351.11 641.76 C 350.80 636.23 353.28 631.20 354.68 625.99 C 356.27 620.20 358.59 614.49 358.69 608.41 Z" />
<path fill="#fdfdfd" opacity="1.00" d=" M 253.93 628.04 C 256.95 622.01 257.25 615.06 259.92 608.91 C 261.22 611.64 261.91 614.59 262.70 617.50 C 263.84 621.87 266.17 626.07 265.49 630.73 C 265.77 629.83 265.99 628.91 266.24 628.02 C 267.07 632.63 269.25 636.97 268.88 641.77 C 262.96 641.70 257.04 641.75 251.12 641.74 C 251.01 636.98 253.10 632.64 253.93 628.04 Z" />
</g>
<g id="#636363ff">
<path fill="#636363" opacity="1.00" d=" M 515.99 166.99 C 518.84 171.96 519.87 177.68 522.42 182.78 C 524.16 183.51 526.10 183.50 527.98 183.57 C 562.01 183.40 596.04 183.59 630.07 183.46 C 633.57 183.39 636.93 184.53 640.12 185.85 C 633.09 185.33 626.04 185.50 619.00 185.48 C 587.99 185.49 556.98 185.48 525.98 185.49 C 523.98 185.72 522.07 184.74 521.19 182.92 C 518.59 177.94 517.21 172.43 515.99 166.99 Z" />
</g>
<g id="#181818ff">
<path fill="#181818" opacity="1.00" d=" M 673.63 208.13 C 675.73 212.03 676.39 216.60 676.38 220.98 C 676.41 292.00 676.34 363.03 676.46 434.03 C 676.20 436.85 674.66 439.37 673.84 442.06 C 673.83 441.71 673.82 441.02 673.81 440.68 C 673.67 436.57 674.07 432.47 674.70 428.41 C 673.12 427.98 671.54 427.55 669.97 427.13 C 668.10 431.45 667.84 436.33 665.73 440.54 C 664.80 442.76 662.07 441.89 660.23 441.80 C 654.29 440.61 647.84 438.91 643.99 433.85 C 650.29 437.35 657.01 440.90 664.43 440.76 C 666.30 435.02 668.23 429.12 667.68 423.00 C 667.46 355.34 667.77 287.66 667.60 219.99 C 667.54 218.23 667.45 216.47 667.21 214.73 C 659.38 212.63 651.66 216.13 645.01 219.98 C 650.60 213.99 659.26 212.32 667.13 212.50 C 668.34 216.55 669.38 220.70 669.37 224.97 C 669.30 276.97 669.36 328.99 669.33 380.99 C 668.93 384.15 671.96 385.73 674.09 387.33 C 675.04 381.26 674.65 375.11 674.66 369.00 C 674.69 321.32 674.64 273.63 674.68 225.95 C 674.47 220.00 673.68 214.09 673.63 208.13 M 669.43 387.84 C 669.21 393.17 669.02 398.56 669.99 403.84 C 671.55 403.15 673.12 402.47 674.69 401.78 C 674.66 398.35 675.04 394.86 674.39 391.47 C 673.58 389.37 671.27 388.69 669.43 387.84 M 669.28 407.12 C 669.39 412.55 669.25 417.99 669.38 423.42 C 670.99 424.16 672.61 424.90 674.23 425.66 C 675.07 418.77 674.56 411.82 674.62 404.90 C 672.82 405.60 671.04 406.34 669.28 407.12 Z" />
<path fill="#181818" opacity="1.00" d=" M 357.00 271.11 C 374.54 241.58 406.68 221.09 440.99 218.37 C 449.00 218.23 457.04 218.00 465.03 218.66 C 474.96 220.42 484.96 222.51 494.19 226.71 C 528.62 241.40 554.77 274.67 559.50 311.98 C 559.98 322.32 560.04 332.69 559.48 343.04 C 558.39 350.63 556.70 358.18 553.67 365.26 C 551.70 374.53 545.86 382.11 541.17 390.10 C 537.19 394.73 533.60 399.73 529.10 403.88 C 526.27 402.12 523.02 401.41 519.73 401.41 C 520.09 401.05 520.81 400.32 521.17 399.96 C 526.53 393.34 533.19 387.68 537.11 380.00 C 547.42 364.02 552.19 344.89 552.38 325.99 C 551.65 317.47 551.14 308.80 548.39 300.63 C 539.74 267.16 512.10 239.64 478.93 230.30 C 445.21 220.24 406.49 229.69 381.35 254.35 C 364.11 270.31 353.09 292.70 350.55 316.02 C 349.81 328.70 349.75 341.69 353.41 353.98 C 356.49 364.43 360.87 374.62 367.13 383.58 C 372.71 390.66 378.21 397.97 384.97 403.97 C 389.78 407.84 394.80 411.52 400.26 414.43 C 405.75 416.80 411.10 419.50 416.50 422.09 C 423.27 424.77 430.47 426.52 437.68 427.48 C 443.44 427.85 449.22 429.03 455.00 428.16 C 461.37 426.80 468.11 428.17 474.25 425.61 C 482.11 423.57 489.90 420.99 497.01 417.03 C 501.60 414.02 506.29 411.17 511.04 408.42 C 513.49 406.75 515.82 404.91 518.13 403.04 C 513.90 409.97 505.79 412.41 499.63 417.13 C 502.44 418.33 505.32 419.37 508.24 420.31 C 504.67 423.66 500.04 425.41 495.65 427.39 C 487.72 430.65 479.65 434.09 471.03 434.85 C 464.74 437.75 457.67 436.20 451.00 436.55 C 443.71 436.12 436.06 437.76 429.12 434.90 C 425.99 433.84 422.78 433.05 419.65 432.02 L 420.64 431.88 C 425.05 431.86 429.57 431.32 433.25 428.66 C 427.26 425.87 420.48 425.45 414.55 422.52 C 410.27 420.45 405.98 418.36 401.43 416.96 C 401.29 419.28 401.14 421.61 401.14 423.95 C 392.98 422.20 386.87 415.78 380.36 410.98 C 373.64 406.30 368.74 399.66 363.43 393.56 C 359.68 389.42 357.56 384.18 354.60 379.51 C 348.70 368.45 344.55 356.40 342.60 344.01 C 341.94 333.01 341.97 321.95 342.58 310.95 C 344.91 296.96 349.39 283.16 357.00 271.11 M 430.12 433.78 C 432.59 433.75 435.09 433.76 437.50 434.39 C 440.44 435.03 443.78 436.66 446.33 434.20 C 443.12 432.25 439.84 430.41 436.63 428.46 C 434.61 430.41 432.46 432.23 430.12 433.78 M 445.11 430.17 C 446.49 431.14 447.87 432.11 449.25 433.09 C 448.95 434.05 448.65 435.01 448.36 435.98 C 450.15 435.90 451.95 435.82 453.75 435.75 C 453.79 433.92 453.84 432.09 453.89 430.27 C 450.96 430.25 448.03 430.22 445.11 430.17 Z" />
<path fill="#181818" opacity="1.00" d=" M 510.25 291.77 C 515.73 298.76 518.25 307.49 520.25 316.01 C 523.94 333.07 518.66 350.89 509.46 365.33 C 504.98 372.69 498.52 378.55 491.90 383.93 C 486.44 388.43 479.72 390.93 473.16 393.36 C 465.43 395.83 457.38 397.60 449.22 397.41 C 449.24 399.28 449.26 401.16 449.29 403.04 C 451.42 402.61 453.56 402.15 455.70 401.68 C 458.56 402.55 461.46 403.31 464.41 403.83 C 459.09 405.15 453.53 403.97 448.17 405.02 C 443.78 405.97 439.43 404.22 435.18 403.35 C 431.15 402.20 427.08 401.14 423.18 399.58 C 420.91 398.63 418.66 397.65 416.44 396.60 C 420.96 395.93 425.79 395.06 430.21 396.72 C 432.73 398.06 434.15 400.77 436.51 402.35 C 440.32 403.35 444.33 402.73 448.22 402.61 C 447.70 400.92 447.31 399.17 446.46 397.61 C 441.16 395.86 435.46 395.80 430.19 393.92 C 425.11 392.41 420.66 389.36 415.64 387.72 C 412.35 386.69 409.68 389.45 407.47 391.42 C 407.20 391.23 406.67 390.85 406.41 390.66 C 405.29 389.83 404.19 388.98 403.13 388.09 C 405.64 387.57 408.14 386.95 410.61 386.24 C 410.25 384.97 409.90 383.71 409.56 382.45 C 416.47 387.02 424.19 390.46 432.08 392.97 C 441.50 394.99 451.39 398.34 460.96 395.10 C 470.95 393.19 480.64 389.71 489.36 384.43 C 502.03 375.72 512.02 362.93 516.60 348.18 C 520.03 338.60 520.14 328.30 519.35 318.28 C 518.12 308.91 514.47 300.14 510.25 291.77 Z" />
<path fill="#181818" opacity="1.00" d=" M 476.30 397.01 C 478.39 396.18 480.54 397.18 482.56 397.73 C 480.76 398.53 479.00 399.41 477.18 400.15 C 475.07 400.59 472.97 400.98 470.89 401.48 C 472.50 399.81 473.97 397.73 476.30 397.01 Z" />
<path fill="#181818" opacity="1.00" d=" M 660.36 445.14 C 664.98 445.08 669.31 443.23 673.27 440.98 C 672.81 443.26 672.15 445.50 671.07 447.57 C 666.48 445.32 661.58 447.78 658.82 451.64 C 658.82 450.65 658.83 449.68 658.84 448.70 C 655.32 448.02 651.94 446.81 648.72 445.24 C 652.59 445.04 656.48 445.17 660.36 445.14 Z" />
</g>
<g id="#fefefeff">
<path fill="#fefefe" opacity="1.00" d=" M 572.52 213.65 C 576.72 211.19 582.41 212.91 584.91 217.00 C 588.82 221.90 585.70 229.55 580.06 231.51 C 576.99 231.80 573.42 232.25 570.97 229.94 C 565.48 226.08 566.20 216.29 572.52 213.65 Z" />
<path fill="#fefefe" opacity="1.00" d=" M 381.35 254.35 C 406.49 229.69 445.21 220.24 478.93 230.30 C 512.10 239.64 539.74 267.16 548.39 300.63 C 551.14 308.80 551.65 317.47 552.38 325.99 C 552.19 344.89 547.42 364.02 537.11 380.00 C 534.70 382.59 532.77 385.70 529.90 387.82 C 526.75 387.33 523.76 386.11 520.61 385.61 C 515.12 384.72 509.54 385.29 504.06 385.96 C 503.76 385.55 503.17 384.74 502.87 384.33 C 515.34 373.55 523.73 358.29 526.89 342.16 C 530.51 325.33 527.61 307.36 519.80 292.11 C 508.03 268.95 483.94 252.50 458.00 250.49 C 452.99 250.37 447.98 250.34 442.99 250.54 C 423.02 252.57 403.97 262.74 391.32 278.34 C 382.86 288.52 377.07 300.91 374.92 313.98 C 369.38 341.42 381.32 370.89 403.13 388.09 C 404.19 388.98 405.29 389.83 406.41 390.66 C 404.38 394.37 402.19 398.16 401.66 402.44 C 401.18 406.43 401.05 410.47 400.26 414.43 C 394.80 411.52 389.78 407.84 384.97 403.97 C 383.62 402.27 382.45 400.44 381.28 398.63 C 386.02 397.70 390.85 397.68 395.66 397.65 C 395.87 393.83 395.93 390.00 395.86 386.17 C 391.09 386.14 386.19 386.76 381.52 385.50 C 379.84 378.41 381.76 371.02 380.23 363.88 C 375.96 365.87 371.94 368.33 368.27 371.27 C 368.42 375.40 368.18 379.56 367.13 383.58 C 360.87 374.62 356.49 364.43 353.41 353.98 C 349.75 341.69 349.81 328.70 350.55 316.02 C 353.09 292.70 364.11 270.31 381.35 254.35 Z" />
<path fill="#fefefe" opacity="1.00" d=" M 484.24 397.03 C 487.07 396.04 489.89 395.03 492.64 393.85 C 491.50 398.88 490.53 404.19 491.88 409.27 C 492.72 412.34 495.03 414.65 497.01 417.03 C 489.90 420.99 482.11 423.57 474.25 425.61 C 472.46 425.38 470.69 425.10 468.92 424.84 C 468.90 417.75 468.02 410.55 469.16 403.52 C 471.74 402.18 474.52 401.31 477.18 400.15 C 479.00 399.41 480.76 398.53 482.56 397.73 C 482.98 397.55 483.82 397.20 484.24 397.03 Z" />
<path fill="#fefefe" opacity="1.00" d=" M 506.63 397.53 C 511.17 395.94 516.07 396.66 520.75 397.07 C 520.86 397.79 521.07 399.24 521.17 399.96 C 520.81 400.32 520.09 401.05 519.73 401.41 C 519.33 401.82 518.53 402.63 518.13 403.04 C 515.82 404.91 513.49 406.75 511.04 408.42 C 508.00 407.67 504.06 407.26 502.79 403.87 C 502.63 401.27 504.09 398.45 506.63 397.53 Z" />
<path fill="#fefefe" opacity="1.00" d=" M 416.43 399.40 C 418.66 399.05 420.94 399.32 423.18 399.58 C 427.08 401.14 431.15 402.20 435.18 403.35 C 435.10 405.91 435.04 408.49 434.98 411.06 C 428.38 411.22 421.73 411.78 415.16 411.03 C 413.69 410.96 412.51 409.37 412.67 407.97 C 412.86 404.80 414.17 401.64 416.43 399.40 Z" />
<path fill="#fefefe" opacity="1.00" d=" M 486.00 607.81 C 489.34 619.03 492.80 630.22 496.06 641.46 C 490.22 643.10 484.02 642.09 478.02 642.23 C 477.61 641.95 476.78 641.40 476.36 641.12 C 479.80 630.09 483.32 619.06 486.00 607.81 Z" />
<path fill="#fefefe" opacity="1.00" d=" M 529.44 607.43 C 535.96 607.40 542.52 607.13 549.02 607.70 C 557.66 610.47 558.16 624.71 550.06 628.48 C 543.19 628.99 536.28 628.73 529.39 628.67 C 529.41 621.58 529.34 614.50 529.44 607.43 Z" />
</g>
<g id="#a4a4a4ff">
<path fill="#a4a4a4" opacity="1.00" d=" M 630.73 240.74 C 632.75 234.94 635.01 228.86 639.95 224.88 C 637.68 228.69 635.30 232.46 633.53 236.53 C 631.12 242.02 631.68 248.16 631.62 254.00 C 631.66 290.34 631.62 326.67 631.63 363.00 C 631.45 379.82 632.01 396.65 631.37 413.46 C 630.59 410.72 630.15 407.89 630.17 405.04 C 630.21 354.02 630.19 303.00 630.18 251.98 C 630.20 248.23 630.33 244.47 630.73 240.74 Z" />
</g>
<g id="#1c1c1cff">
<path fill="#1c1c1c" opacity="1.00" d=" M 622.41 250.01 C 622.29 245.16 622.53 240.22 624.38 235.67 C 623.33 248.76 623.76 261.89 623.69 275.00 C 623.68 303.34 623.70 331.67 623.69 360.00 C 623.88 376.59 623.29 393.20 624.00 409.77 C 625.66 409.77 627.32 409.78 628.99 409.79 C 629.36 404.20 629.37 398.60 629.29 393.00 C 629.29 347.67 629.30 302.34 629.29 257.00 C 629.32 251.57 628.52 245.88 630.73 240.74 C 630.33 244.47 630.20 248.23 630.18 251.98 C 630.19 303.00 630.21 354.02 630.17 405.04 C 630.15 407.89 630.59 410.72 631.37 413.46 C 632.25 417.64 633.89 421.65 636.25 425.21 C 634.10 430.07 636.63 434.91 638.88 439.18 C 635.76 436.58 632.64 433.95 629.81 431.02 C 628.61 429.02 627.44 426.99 626.39 424.91 C 627.87 420.83 627.93 416.46 627.71 412.18 C 626.63 412.21 625.56 412.23 624.49 412.27 C 623.99 413.65 623.49 415.03 622.99 416.42 C 622.34 413.32 622.52 410.14 622.44 407.00 C 622.38 354.67 622.45 302.34 622.41 250.01 Z" />
<path fill="#1c1c1c" opacity="1.00" d=" M 271.37 243.75 C 272.88 248.70 272.43 253.90 272.40 259.00 C 272.36 298.01 272.44 337.01 272.35 376.02 C 272.55 383.02 273.75 389.98 273.38 397.00 C 273.57 406.32 272.28 416.07 275.73 424.96 C 273.47 429.92 269.81 434.04 265.99 437.85 C 265.16 434.61 264.38 431.36 263.51 428.14 C 269.04 421.45 271.93 412.66 271.54 404.00 C 271.32 350.58 271.60 297.16 271.37 243.75 Z" />
</g>
<g id="#dd3a36ff">
<path fill="#dd3a36" opacity="1.00" d=" M 423.38 299.15 C 424.98 297.87 427.84 298.18 429.19 299.77 C 432.93 303.38 436.55 307.11 440.31 310.70 C 443.84 314.06 446.91 317.98 451.00 320.71 C 455.29 317.86 458.47 313.70 462.19 310.19 C 465.99 306.60 469.55 302.74 473.42 299.23 C 476.10 296.93 480.92 299.37 480.26 302.97 C 478.48 307.01 474.70 309.61 471.75 312.74 C 467.48 317.15 462.87 321.24 458.82 325.85 C 457.59 326.97 458.26 328.71 459.32 329.68 C 465.80 336.52 472.88 342.81 479.21 349.78 C 482.88 353.07 476.84 358.97 473.51 355.55 C 466.07 349.28 459.86 341.65 452.55 335.23 C 451.13 333.48 449.39 335.19 448.24 336.26 C 441.76 342.43 435.78 349.14 429.13 355.12 C 427.09 357.47 423.11 356.68 422.13 353.76 C 420.79 351.62 422.90 349.67 424.23 348.19 C 429.95 342.60 435.45 336.78 441.24 331.24 C 442.26 329.94 444.00 328.86 444.16 327.12 C 440.69 322.55 436.17 318.91 432.26 314.73 C 428.89 311.07 424.65 308.10 422.07 303.78 C 420.98 302.21 422.16 300.23 423.38 299.15 Z" />
<path fill="#dd3a36" opacity="1.00" d=" M 321.09 497.29 C 328.18 493.78 336.84 493.54 344.02 496.97 C 351.37 500.04 355.92 507.07 359.26 513.97 C 362.51 523.32 361.74 533.32 361.45 543.04 C 360.07 553.17 355.08 564.04 345.33 568.52 C 338.29 572.60 329.29 572.63 322.04 569.07 C 316.29 566.54 312.26 561.37 309.10 556.13 C 303.65 544.93 303.39 531.88 305.74 519.85 C 307.35 510.59 313.14 502.24 321.09 497.29 M 328.35 504.28 C 318.55 506.72 313.45 517.59 313.41 527.00 C 313.55 534.57 312.37 542.51 315.42 549.69 C 318.34 557.10 325.51 563.76 334.00 562.68 C 342.20 563.22 348.45 556.22 351.17 549.18 C 354.58 541.57 353.43 533.07 353.35 524.99 C 352.46 518.45 349.53 511.92 344.48 507.53 C 340.17 503.73 333.80 502.46 328.35 504.28 Z" />
<path fill="#dd3a36" opacity="1.00" d=" M 559.64 497.80 C 566.17 494.87 573.76 493.57 580.77 495.46 C 590.61 497.59 597.77 507.30 597.80 517.25 C 595.46 518.08 593.04 518.65 590.55 518.70 C 589.62 514.50 588.27 510.04 584.65 507.36 C 579.13 502.43 570.75 502.58 564.27 505.38 C 556.22 509.76 552.40 519.17 552.35 528.00 C 552.44 534.65 551.61 541.56 553.98 547.94 C 556.16 554.72 561.86 560.55 568.98 561.94 C 576.68 563.93 584.78 560.69 590.41 555.42 C 591.84 551.10 592.23 545.64 590.00 541.57 C 584.64 541.24 579.27 541.44 573.91 541.54 C 573.53 538.65 573.11 535.68 573.78 532.81 C 581.48 531.96 589.29 532.57 597.04 532.47 C 599.18 532.06 599.42 534.46 599.37 535.98 C 599.40 543.01 599.42 550.04 599.37 557.07 C 599.67 560.43 596.64 562.51 594.31 564.33 C 589.76 567.53 584.81 571.06 578.97 570.71 C 572.32 570.64 564.96 571.75 559.09 567.91 C 552.72 563.54 547.35 557.20 545.45 549.58 C 542.94 542.31 543.38 534.55 543.56 527.00 C 544.45 515.66 549.53 503.80 559.64 497.80 Z" />
</g>
<g id="#060606ff">
<path fill="#060606" opacity="1.00" d=" M 225.53 364.96 C 226.85 364.38 228.18 363.81 229.51 363.25 C 232.79 368.66 230.89 375.13 231.27 381.07 C 231.21 386.00 234.46 390.71 232.62 395.63 C 230.50 402.57 231.50 409.87 231.35 417.00 C 231.18 425.78 231.74 434.58 230.98 443.35 C 229.55 441.33 228.18 439.28 227.05 437.09 C 224.94 433.75 225.59 429.72 225.47 426.00 C 225.51 405.65 225.39 385.30 225.53 364.96 Z" />
<path fill="#060606" opacity="1.00" d=" M 401.43 416.96 C 405.98 418.36 410.27 420.45 414.55 422.52 C 420.48 425.45 427.26 425.87 433.25 428.66 C 429.57 431.32 425.05 431.86 420.64 431.88 C 413.82 431.64 407.63 428.34 401.65 425.37 C 401.52 425.01 401.26 424.30 401.14 423.95 C 401.14 421.61 401.29 419.28 401.43 416.96 Z" />
<path fill="#060606" opacity="1.00" d=" M 445.11 430.17 C 448.03 430.22 450.96 430.25 453.89 430.27 C 453.84 432.09 453.79 433.92 453.75 435.75 C 451.95 435.82 450.15 435.90 448.36 435.98 C 448.65 435.01 448.95 434.05 449.25 433.09 C 447.87 432.11 446.49 431.14 445.11 430.17 Z" />
</g>
<g id="#030303ff">
<path fill="#030303" opacity="1.00" d=" M 407.47 391.42 C 409.68 389.45 412.35 386.69 415.64 387.72 C 420.66 389.36 425.11 392.41 430.19 393.92 C 435.46 395.80 441.16 395.86 446.46 397.61 C 447.31 399.17 447.70 400.92 448.22 402.61 C 444.33 402.73 440.32 403.35 436.51 402.35 C 434.15 400.77 432.73 398.06 430.21 396.72 C 425.79 395.06 420.96 395.93 416.44 396.60 C 413.34 395.08 410.31 393.38 407.47 391.42 Z" />
<path fill="#030303" opacity="1.00" d=" M 669.28 407.12 C 671.04 406.34 672.82 405.60 674.62 404.90 C 674.56 411.82 675.07 418.77 674.23 425.66 C 672.61 424.90 670.99 424.16 669.38 423.42 C 669.25 417.99 669.39 412.55 669.28 407.12 Z" />
<path fill="#030303" opacity="1.00" d=" M 252.66 437.62 C 256.53 434.78 260.43 431.87 263.51 428.14 C 264.38 431.36 265.16 434.61 265.99 437.85 C 263.62 440.67 260.67 442.93 257.30 444.40 C 255.97 444.13 254.65 443.87 253.33 443.62 C 253.11 441.61 252.89 439.61 252.66 437.62 Z" />
<path fill="#030303" opacity="1.00" d=" M 624.71 598.34 C 639.00 598.44 653.29 598.39 667.58 598.36 C 668.39 601.11 668.57 604.00 667.66 606.76 C 666.14 607.11 664.60 607.39 663.05 607.37 C 652.95 607.37 642.85 607.35 632.75 607.37 C 632.48 614.78 632.45 622.22 632.78 629.63 C 643.73 629.76 654.70 629.43 665.65 629.80 C 665.70 632.73 665.71 635.65 665.65 638.58 C 655.08 638.56 644.49 638.49 633.92 638.61 C 633.60 638.95 632.96 639.62 632.64 639.96 C 632.60 647.81 632.37 655.67 632.81 663.52 C 644.58 663.50 656.36 663.49 668.14 663.51 C 670.93 665.37 668.92 669.64 669.42 672.49 C 654.48 672.54 639.54 672.55 624.61 672.48 C 624.57 647.77 624.37 623.05 624.71 598.34 Z" />
<path fill="#030303" opacity="1.00" d=" M 521.43 598.38 C 529.61 598.42 537.80 598.36 545.99 598.40 C 549.67 598.40 553.46 599.32 556.43 601.56 C 565.82 608.60 566.21 624.65 556.99 631.99 C 555.64 633.07 557.73 633.95 558.47 634.51 C 564.14 637.78 566.93 644.65 566.52 651.00 C 566.92 656.34 565.12 661.68 561.94 665.95 C 558.19 670.74 551.83 672.41 546.00 672.51 C 537.81 672.56 529.63 672.49 521.45 672.55 C 521.27 647.83 521.30 623.10 521.43 598.38 M 529.44 607.43 C 529.34 614.50 529.41 621.58 529.39 628.67 C 536.28 628.73 543.19 628.99 550.06 628.48 C 558.16 624.71 557.66 610.47 549.02 607.70 C 542.52 607.13 535.96 607.40 529.44 607.43 M 529.45 638.49 C 529.46 646.78 529.17 655.10 529.59 663.38 C 535.74 663.63 541.90 663.53 548.05 663.45 C 552.43 663.41 556.14 660.05 557.49 656.04 C 557.84 652.69 557.84 649.30 557.48 645.96 C 556.06 642.05 552.42 638.55 548.06 638.58 C 541.86 638.35 535.65 638.46 529.45 638.49 Z" />
</g>
<g id="#070707ff">
<path fill="#070707" opacity="1.00" d=" M 624.49 412.27 C 625.56 412.23 626.63 412.21 627.71 412.18 C 627.93 416.46 627.87 420.83 626.39 424.91 C 624.98 422.20 623.85 419.35 622.99 416.42 C 623.49 415.03 623.99 413.65 624.49 412.27 Z" />
</g>
<g id="#a0a0a0ff">
<path fill="#a0a0a0" opacity="1.00" d=" M 629.81 431.02 C 632.64 433.95 635.76 436.58 638.88 439.18 C 641.73 441.82 645.12 443.79 648.72 445.24 C 651.94 446.81 655.32 448.02 658.84 448.70 C 658.83 449.68 658.82 450.65 658.82 451.64 C 651.51 459.61 640.91 464.64 629.99 464.28 C 510.67 464.30 391.34 464.29 272.01 464.29 C 260.35 464.54 248.43 459.05 241.78 449.34 C 246.52 447.95 251.17 446.22 255.96 445.01 C 252.19 447.31 248.09 448.99 243.86 450.27 C 250.74 459.08 262.04 463.14 272.96 463.21 C 387.97 463.23 502.99 463.21 618.00 463.22 C 625.82 463.23 633.84 463.72 641.42 461.38 C 647.96 459.57 653.73 455.56 658.08 450.39 C 647.18 446.86 635.54 441.53 629.81 431.02 Z" />
</g>
<g id="#fec7c5ff">
<path fill="#fec7c5" opacity="1.00" d=" M 610.21 495.07 C 615.72 493.82 621.40 494.46 627.00 494.36 C 635.81 494.58 644.68 493.91 653.45 494.61 C 653.72 494.99 654.27 495.74 654.54 496.12 C 640.12 496.64 625.67 496.24 611.24 496.33 C 610.93 521.03 611.70 545.75 610.87 570.44 C 610.08 568.73 609.61 566.90 609.70 565.03 C 609.78 550.02 609.75 535.01 609.76 520.00 C 609.88 511.69 609.46 503.36 610.21 495.07 Z" />
</g>
<g id="#ee9692ff">
<path fill="#ee9692" opacity="1.00" d=" M 396.48 495.48 C 399.35 495.49 402.48 494.66 405.20 495.81 C 406.70 498.93 406.07 502.62 406.23 506.00 C 406.19 522.67 406.22 539.33 406.20 556.00 C 406.26 560.87 406.37 565.77 405.60 570.61 C 402.65 570.69 399.55 571.36 396.71 570.31 C 395.82 567.63 396.22 564.75 396.12 561.99 C 396.36 539.82 395.74 517.64 396.48 495.48 M 397.85 496.75 C 397.57 503.49 397.70 510.25 397.67 517.00 C 397.86 534.62 397.29 552.27 397.96 569.88 C 400.00 569.86 402.05 569.86 404.10 569.89 C 404.34 566.93 404.44 563.96 404.39 561.00 C 404.23 539.58 404.58 518.16 404.21 496.74 C 402.08 496.73 399.97 496.73 397.85 496.75 Z" />
</g>
<g id="#dc3a37ff">
<path fill="#dc3a37" opacity="1.00" d=" M 505.04 496.97 C 507.93 494.96 511.48 495.94 514.67 496.42 C 522.05 518.31 529.20 540.26 536.67 562.11 C 537.29 564.76 538.76 567.41 538.28 570.18 C 535.57 570.61 532.78 570.63 530.08 570.21 C 526.56 563.39 525.56 555.53 522.78 548.38 C 514.45 547.38 505.91 547.21 497.60 548.54 C 496.18 553.20 495.51 558.08 493.65 562.61 C 492.64 564.83 492.35 567.26 492.31 569.68 C 489.38 570.51 486.34 570.51 483.33 570.44 C 484.54 558.74 490.40 548.10 492.60 536.60 C 492.79 536.54 493.19 536.43 493.38 536.37 C 494.10 531.27 496.08 526.50 497.65 521.64 C 500.11 513.41 502.67 505.22 505.04 496.97 M 505.02 523.80 C 503.55 528.91 501.29 533.85 501.02 539.24 C 507.22 539.71 513.44 539.51 519.65 539.36 C 518.91 533.64 516.68 528.27 515.07 522.77 C 513.41 517.86 512.65 512.62 510.05 508.08 C 507.82 513.13 506.71 518.56 505.02 523.80 Z" />
</g>
<g id="#b84b4bff">
<path fill="#b84b4b" opacity="1.00" d=" M 611.24 496.33 C 625.67 496.24 640.12 496.64 654.54 496.12 C 654.56 498.90 654.58 501.68 654.49 504.47 C 653.12 504.37 651.75 504.30 650.40 504.23 C 651.78 502.52 652.72 500.52 653.20 498.37 C 644.84 497.18 636.40 497.91 628.00 497.70 C 623.45 497.73 618.83 497.29 614.35 498.27 C 612.63 500.43 612.72 503.35 612.61 505.97 C 612.83 524.67 612.83 543.37 612.63 562.06 C 612.80 564.38 612.49 567.13 614.24 568.96 C 617.45 569.55 620.75 569.34 624.01 569.32 C 633.79 569.02 643.57 569.65 653.35 569.10 C 653.43 567.55 653.55 566.00 653.48 564.46 C 643.26 562.35 632.66 564.54 622.33 563.50 C 621.35 563.16 620.49 562.61 619.77 561.85 C 624.81 561.14 629.92 561.53 635.00 561.46 C 642.10 561.54 649.21 561.24 656.31 561.68 C 655.93 564.43 657.61 568.46 655.00 570.34 C 640.30 570.64 625.58 570.39 610.87 570.44 C 611.70 545.75 610.93 521.03 611.24 496.33 Z" />
</g>
<g id="#de3a36ff">
<path fill="#de3a36" opacity="1.00" d=" M 246.39 496.39 C 248.94 496.33 251.50 496.19 254.04 496.45 C 257.10 500.42 259.14 505.06 261.69 509.36 C 267.64 520.56 273.63 531.75 279.97 542.74 C 281.64 545.70 282.53 549.29 285.49 551.31 C 285.80 533.04 285.39 514.76 285.68 496.50 C 288.25 496.34 290.83 496.34 293.41 496.49 C 293.59 520.33 293.51 544.19 293.46 568.03 C 293.83 570.07 291.59 570.73 290.01 570.50 C 288.05 570.39 285.31 570.94 284.20 568.86 C 276.15 553.92 268.22 538.91 259.98 524.07 C 258.66 521.91 257.60 519.60 256.70 517.25 C 256.12 517.36 254.96 517.57 254.38 517.67 C 254.40 535.05 254.23 552.43 254.47 569.81 C 251.83 570.43 249.12 570.49 246.43 570.46 C 246.17 545.77 246.25 521.08 246.39 496.39 Z" />
</g>
<g id="#d83a35ff">
<path fill="#d83a35" opacity="1.00" d=" M 397.85 496.75 C 399.97 496.73 402.08 496.73 404.21 496.74 C 404.58 518.16 404.23 539.58 404.39 561.00 C 404.44 563.96 404.34 566.93 404.10 569.89 C 402.05 569.86 400.00 569.86 397.96 569.88 C 397.29 552.27 397.86 534.62 397.67 517.00 C 397.70 510.25 397.57 503.49 397.85 496.75 Z" />
</g>
<g id="#d93a37ff">
<path fill="#d93a37" opacity="1.00" d=" M 418.75 498.01 C 419.03 497.61 419.61 496.83 419.90 496.44 C 423.57 496.18 427.29 496.15 430.96 496.60 C 434.14 505.90 436.12 515.58 438.85 525.03 C 441.27 534.83 444.54 544.40 446.63 554.28 C 447.40 554.78 448.15 555.29 448.93 555.80 C 451.92 543.47 455.87 531.38 459.01 519.08 C 460.91 511.74 463.60 504.57 464.70 497.04 C 468.50 495.91 472.50 496.31 476.40 496.57 C 476.61 520.39 476.47 544.21 476.45 568.03 C 476.27 571.98 471.07 569.92 468.55 570.51 C 468.53 551.20 468.92 531.86 468.29 512.56 C 465.51 516.12 464.88 520.72 464.43 525.08 C 464.38 525.56 464.28 526.52 464.22 527.00 C 462.29 529.24 461.91 532.27 461.24 535.05 C 458.64 546.68 453.80 557.80 452.27 569.65 C 449.62 570.37 446.79 570.89 444.10 570.15 C 442.41 567.75 442.11 564.70 441.29 561.95 C 438.11 548.41 433.82 535.16 430.43 521.68 C 429.74 517.85 428.89 514.00 427.04 510.55 C 426.56 513.67 426.38 516.83 426.40 519.99 C 426.48 536.76 426.37 553.52 426.47 570.29 C 424.05 570.56 421.62 570.52 419.20 570.56 C 418.19 565.43 418.71 560.18 418.61 555.00 C 418.71 536.00 418.39 516.99 418.75 498.01 Z" />
</g>
<g id="#e13935ff">
<path fill="#e13935" opacity="1.00" d=" M 614.35 498.27 C 618.83 497.29 623.45 497.73 628.00 497.70 C 636.40 497.91 644.84 497.18 653.20 498.37 C 652.72 500.52 651.78 502.52 650.40 504.23 C 651.75 504.30 653.12 504.37 654.49 504.47 C 652.39 505.11 650.21 505.42 648.02 505.33 C 638.58 505.20 629.13 505.41 619.69 505.20 C 619.23 512.57 619.41 519.96 619.62 527.34 C 630.45 527.52 641.30 527.41 652.14 527.40 C 652.39 529.93 652.63 532.50 652.39 535.05 C 651.67 536.83 649.49 536.29 648.02 536.45 C 638.48 536.40 628.94 536.48 619.40 536.39 C 619.68 544.87 618.91 553.41 619.77 561.85 C 620.49 562.61 621.35 563.16 622.33 563.50 C 632.66 564.54 643.26 562.35 653.48 564.46 C 653.55 566.00 653.43 567.55 653.35 569.10 C 643.57 569.65 633.79 569.02 624.01 569.32 C 620.75 569.34 617.45 569.55 614.24 568.96 C 612.49 567.13 612.80 564.38 612.63 562.06 C 612.83 543.37 612.83 524.67 612.61 505.97 C 612.72 503.35 612.63 500.43 614.35 498.27 Z" />
</g>
<g id="#fffbfaff">
<path fill="#fffbfa" opacity="1.00" d=" M 505.02 523.80 C 506.71 518.56 507.82 513.13 510.05 508.08 C 512.65 512.62 513.41 517.86 515.07 522.77 C 516.68 528.27 518.91 533.64 519.65 539.36 C 513.44 539.51 507.22 539.71 501.02 539.24 C 501.29 533.85 503.55 528.91 505.02 523.80 Z" />
</g>
<g id="#fdc9c2ff">
<path fill="#fdc9c2" opacity="1.00" d=" M 427.04 510.55 C 428.89 514.00 429.74 517.85 430.43 521.68 C 429.83 521.59 428.63 521.41 428.03 521.32 C 427.65 536.56 427.93 551.82 427.85 567.06 C 427.91 568.31 427.60 569.59 426.47 570.29 C 426.37 553.52 426.48 536.76 426.40 519.99 C 426.38 516.83 426.56 513.67 427.04 510.55 Z" />
</g>
<g id="#fddad9ff">
<path fill="#fddad9" opacity="1.00" d=" M 464.43 525.08 C 464.88 520.72 465.51 516.12 468.29 512.56 C 468.92 531.86 468.53 551.20 468.55 570.51 C 466.60 568.90 467.17 566.23 467.06 564.02 C 467.26 550.36 466.93 536.71 467.00 523.05 C 466.14 523.72 465.28 524.40 464.43 525.08 Z" />
</g>
<g id="#050505ff">
<path fill="#050505" opacity="1.00" d=" M 418.39 598.79 C 420.71 597.99 423.26 598.51 425.68 598.38 C 426.69 601.49 426.36 604.78 426.40 608.00 C 426.37 625.01 426.43 642.01 426.37 659.01 C 426.51 660.48 426.03 662.17 426.92 663.49 C 436.47 663.53 446.03 663.51 455.58 663.48 C 455.65 666.44 455.67 669.40 455.70 672.37 C 443.29 672.73 430.87 672.42 418.45 672.53 C 418.23 647.95 418.36 623.36 418.39 598.79 Z" />
</g>
<g id="#020202ff">
<path fill="#020202" opacity="1.00" d=" M 577.37 598.38 C 579.99 598.39 582.61 598.40 585.24 598.38 C 585.66 619.83 585.15 641.30 585.49 662.75 L 585.96 663.47 C 595.48 663.55 605.01 663.50 614.53 663.49 C 614.62 666.50 614.62 669.53 614.56 672.55 C 602.17 672.49 589.79 672.51 577.41 672.54 C 577.29 647.82 577.35 623.10 577.37 598.38 Z" />
</g>
</svg>
